<svg width="54" height="60" viewBox="0 0 54 60" fill="none" xmlns="http://www.w3.org/2000/svg">
<g filter="url(#filter0_d_7609_7344)">
<path d="M33.0352 11.7002H20.6355C18.4473 11.7027 16.674 13.4759 16.6719 15.6642V45.0032C16.674 47.1914 18.4473 48.9647 20.6355 48.9669H33.0352C35.2235 48.9647 36.9967 47.1914 36.9992 45.0032V15.6642C36.9967 13.4759 35.2235 11.7027 33.0352 11.7002ZM26.8355 45.5792C25.8998 45.5792 25.1414 44.8208 25.1414 43.885C25.1414 42.9495 25.8998 42.1912 26.8355 42.1912C27.771 42.1912 28.5294 42.9495 28.5294 43.885C28.5294 44.8208 27.771 45.5792 26.8355 45.5792ZM29.3765 16.782H24.2946C23.8269 16.782 23.4475 16.4027 23.4475 15.935C23.4475 15.4672 23.8269 15.0882 24.2946 15.0882H29.3765C29.8442 15.0882 30.2232 15.4672 30.2232 15.935C30.2232 16.4027 29.8442 16.782 29.3765 16.782Z" fill="url(#paint0_linear_7609_7344)"/>
<path d="M17.1208 15.6644C17.1229 13.7239 18.6953 12.1515 20.6358 12.1491H33.035C34.9756 12.1515 36.5481 13.7241 36.5503 15.6647V45.0027C36.5481 46.9434 34.9754 48.516 33.0348 48.5179H20.636C18.6954 48.516 17.1229 46.9435 17.1208 45.0029V15.6644ZM24.6924 43.885C24.6924 45.0687 25.6518 46.0281 26.8355 46.0281C28.019 46.0281 28.9783 45.0687 28.9783 43.885C28.9783 42.7016 28.019 41.7422 26.8355 41.7422C25.6519 41.7422 24.6924 42.7016 24.6924 43.885ZM24.2946 17.231H29.3765C30.0923 17.231 30.6722 16.6504 30.6722 15.935C30.6722 15.2193 30.0921 14.6392 29.3765 14.6392H24.2946C23.5792 14.6392 22.9986 15.2191 22.9986 15.935C22.9986 16.6506 23.5789 17.231 24.2946 17.231Z" stroke="url(#paint1_linear_7609_7344)" stroke-width="0.897882"/>
</g>
<path d="M29.8549 36.6385C30.2364 36.6385 30.5457 36.3292 30.5457 35.9477C30.5457 35.5661 30.2364 35.2568 29.8549 35.2568C29.4734 35.2568 29.1641 35.5661 29.1641 35.9477C29.1641 36.3292 29.4734 36.6385 29.8549 36.6385Z" fill="white"/>
<path d="M27.0971 36.6385C27.4786 36.6385 27.7879 36.3292 27.7879 35.9477C27.7879 35.5661 27.4786 35.2568 27.0971 35.2568C26.7155 35.2568 26.4062 35.5661 26.4062 35.9477C26.4062 36.3292 26.7155 36.6385 27.0971 36.6385Z" fill="white"/>
<path d="M24.3314 36.6385C24.713 36.6385 25.0223 36.3292 25.0223 35.9477C25.0223 35.5661 24.713 35.2568 24.3314 35.2568C23.9499 35.2568 23.6406 35.5661 23.6406 35.9477C23.6406 36.3292 23.9499 36.6385 24.3314 36.6385Z" fill="white"/>
<path d="M22.5723 28.0855C23.7904 26.9088 25.4122 26.2601 27.1409 26.2601C28.8697 26.2601 30.4922 26.9088 31.7096 28.0855C31.8504 28.2214 32.0319 28.2891 32.2134 28.2891C32.3949 28.2891 32.5922 28.2152 32.7344 28.0682C33.0125 27.7805 33.0049 27.3222 32.7178 27.0441C31.2272 25.6045 29.2465 24.8115 27.1409 24.8115C25.0353 24.8115 23.0547 25.6045 21.5647 27.0441C21.2769 27.3215 21.2693 27.7811 21.5474 28.0682C21.8256 28.3553 22.2845 28.3643 22.5716 28.0855H22.5723Z" fill="white"/>
<path d="M30.7659 30.6078C30.9557 30.6078 31.1448 30.534 31.2869 30.387C31.565 30.0992 31.5575 29.6409 31.2697 29.3628C30.1662 28.2973 28.7003 27.71 27.1434 27.71C25.5865 27.71 24.1206 28.2966 23.0178 29.3628C22.73 29.6409 22.7224 30.0999 23.0006 30.387C23.2773 30.6747 23.7383 30.683 24.024 30.4042C24.8556 29.6009 25.9626 29.1585 27.1434 29.1585C28.3242 29.1585 29.4305 29.6002 30.2635 30.4042C30.4036 30.5402 30.5851 30.6078 30.7666 30.6078H30.7659Z" fill="white"/>
<path d="M24.8297 31.5366C24.5426 31.8147 24.535 32.2737 24.8131 32.5608C25.092 32.8486 25.5502 32.8561 25.8373 32.578C26.5323 31.9058 27.7572 31.9058 28.4522 32.578C28.593 32.714 28.7745 32.7816 28.956 32.7816C29.1375 32.7816 29.3342 32.7078 29.477 32.5608C29.7551 32.273 29.7476 31.8147 29.4605 31.5366C28.84 30.9383 28.0181 30.6084 27.1451 30.6084C26.2721 30.6084 25.4494 30.9383 24.8304 31.5366H24.8297Z" fill="white"/>
<defs>
<filter id="filter0_d_7609_7344" x="5.89729" y="0.92561" width="41.8773" height="58.8158" filterUnits="userSpaceOnUse" color-interpolation-filters="sRGB">
<feFlood flood-opacity="0" result="BackgroundImageFix"/>
<feColorMatrix in="SourceAlpha" type="matrix" values="0 0 0 0 0 0 0 0 0 0 0 0 0 0 0 0 0 0 127 0" result="hardAlpha"/>
<feOffset/>
<feGaussianBlur stdDeviation="5.38729"/>
<feComposite in2="hardAlpha" operator="out"/>
<feColorMatrix type="matrix" values="0 0 0 0 0.996078 0 0 0 0 0.376471 0 0 0 0 0.054902 0 0 0 0.3 0"/>
<feBlend mode="normal" in2="BackgroundImageFix" result="effect1_dropShadow_7609_7344"/>
<feBlend mode="normal" in="SourceGraphic" in2="effect1_dropShadow_7609_7344" result="shape"/>
</filter>
<linearGradient id="paint0_linear_7609_7344" x1="53.8865" y1="-25.179" x2="-5.54934" y2="9.92723" gradientUnits="userSpaceOnUse">
<stop stop-color="#FBFF25"/>
<stop offset="1" stop-color="#FF0000"/>
</linearGradient>
<linearGradient id="paint1_linear_7609_7344" x1="26.8355" y1="11.7002" x2="26.8355" y2="48.9669" gradientUnits="userSpaceOnUse">
<stop stop-color="#EE6429"/>
<stop offset="1" stop-color="#FF7020" stop-opacity="0"/>
</linearGradient>
</defs>
</svg>
