<svg width="44" height="44" viewBox="0 0 44 44" fill="none" xmlns="http://www.w3.org/2000/svg">
<g clip-path="url(#clip0_3105_25067)">
<path d="M4.46875 44H1.28906C0.577156 44 0 43.4228 0 42.7109V27.2422C0 26.5303 0.577156 25.9531 1.28906 25.9531H4.46875C5.18066 25.9531 5.75781 26.5303 5.75781 27.2422V42.7109C5.75781 43.4228 5.18066 44 4.46875 44Z" fill="url(#paint0_linear_3105_25067)"/>
<path d="M42.3888 29.976C41.3951 29.429 40.1822 29.4662 39.2239 30.0733L34.5077 33.0602C34.3651 34.2771 33.8294 35.4062 32.9565 36.3001C31.8957 37.3862 30.4768 37.9844 28.9609 37.9844H22.5521C21.8579 37.9844 21.2607 37.451 21.228 36.7576C21.1931 36.0174 21.783 35.4062 22.5156 35.4062H28.9609C30.6435 35.4062 32.0079 34.0173 31.9679 32.3258C31.929 30.6839 30.5469 29.3906 28.9045 29.3906H21.6562L20.8154 28.76C19.1409 27.5041 17.0661 26.8125 14.9729 26.8125C13.2084 26.8125 11.476 27.2924 9.96291 28.2001L8.33594 29.1764V42.2812H30.003C31.2559 42.2812 32.4816 41.9161 33.5302 41.2305L42.5914 35.3059C43.4734 34.7291 44 33.7556 44 32.7017C44 31.5673 43.3826 30.5229 42.3888 29.976Z" fill="url(#paint1_linear_3105_25067)"/>
<path d="M18.2188 0C12.2955 0 7.47656 4.81894 7.47656 10.7422C7.47656 16.6654 12.2955 21.4844 18.2188 21.4844C24.142 21.4844 28.9609 16.6654 28.9609 10.7422C28.9609 4.81894 24.142 0 18.2188 0ZM19.5078 16.0764V16.3281C19.5078 17.04 18.9307 17.6172 18.2188 17.6172C17.5068 17.6172 16.9297 17.04 16.9297 16.3281V16.0753C15.888 15.6511 15.0841 14.7281 14.8503 13.5768C14.7087 12.8792 15.1594 12.1987 15.8571 12.0569C16.5547 11.9155 17.2353 12.3661 17.377 13.0637C17.4577 13.4613 17.8118 13.7499 18.2188 13.7499C18.6927 13.7499 19.0782 13.3644 19.0782 12.8905C19.0782 12.4167 18.6927 12.0312 18.2188 12.0312C16.3234 12.0312 14.7813 10.4891 14.7813 8.59366C14.7813 7.15404 15.6714 5.91895 16.9298 5.40788V5.15625C16.9298 4.44434 17.5069 3.86719 18.2188 3.86719C18.9307 3.86719 19.5079 4.44434 19.5079 5.15625V5.40908C20.5496 5.83327 21.3535 6.75623 21.5872 7.90754C21.7289 8.60518 21.2781 9.28563 20.5805 9.42743C19.8829 9.56905 19.2024 9.11831 19.0606 8.42067C18.9798 8.02295 18.6257 7.73438 18.2188 7.73438C17.7449 7.73438 17.3594 8.11989 17.3594 8.59375C17.3594 9.06761 17.7449 9.45312 18.2188 9.45312C20.1142 9.45312 21.6562 10.9952 21.6562 12.8906C21.6562 14.3302 20.7662 15.5653 19.5078 16.0764Z" fill="url(#paint2_linear_3105_25067)"/>
<path d="M43.8734 17.3427C43.6612 16.8898 43.2061 16.6004 42.706 16.6004H40.8296C39.6903 12.1007 37.1218 8.02865 33.5199 5.04585C31.8445 3.6583 29.9779 2.53776 27.9922 1.70752C30.1892 4.08352 31.5341 7.25857 31.5341 10.7422C31.5341 11.8137 31.4061 12.8556 31.1661 13.8544C31.7646 14.7123 32.2708 15.6333 32.6687 16.6004H31.5341C31.0339 16.6004 30.5789 16.8898 30.3667 17.3427C30.1545 17.7957 30.2236 18.3305 30.5438 18.7147L36.1298 25.4178C36.3747 25.7118 36.7374 25.8817 37.12 25.8817C37.5026 25.8817 37.8655 25.7117 38.1103 25.4178L43.6962 18.7147C44.0164 18.3305 44.0855 17.7956 43.8734 17.3427Z" fill="url(#paint3_linear_3105_25067)"/>
</g>
<defs>
<linearGradient id="paint0_linear_3105_25067" x1="10.5412" y1="8.09387" x2="-9.74624" y2="15.1029" gradientUnits="userSpaceOnUse">
<stop stop-color="#FBFF25"/>
<stop offset="1" stop-color="#FF0000"/>
</linearGradient>
<linearGradient id="paint1_linear_3105_25067" x1="73.6286" y1="11.5046" x2="54.1818" y2="60.0557" gradientUnits="userSpaceOnUse">
<stop stop-color="#FBFF25"/>
<stop offset="1" stop-color="#FF0000"/>
</linearGradient>
<linearGradient id="paint2_linear_3105_25067" x1="46.8095" y1="-21.261" x2="7.80792" y2="20.9726" gradientUnits="userSpaceOnUse">
<stop stop-color="#FBFF25"/>
<stop offset="1" stop-color="#FF0000"/>
</linearGradient>
<linearGradient id="paint3_linear_3105_25067" x1="57.2898" y1="-22.2153" x2="15.5978" y2="7.67125" gradientUnits="userSpaceOnUse">
<stop stop-color="#FBFF25"/>
<stop offset="1" stop-color="#FF0000"/>
</linearGradient>
<clipPath id="clip0_3105_25067">
<rect width="44" height="44" fill="white"/>
</clipPath>
</defs>
</svg>
