<svg width="44" height="44" viewBox="0 0 44 44" fill="none" xmlns="http://www.w3.org/2000/svg">
<path d="M16.1297 19.0667V29.3334H27.863V19.0667H16.1297ZM32.2631 2.93329C28.4351 2.09729 25.0031 1.07057 21.9964 0C18.9897 1.07057 15.5577 2.09729 11.7297 2.93329C8.5764 3.62258 5.6284 4.09186 2.92969 4.4V19.0373C2.92969 28.8933 8.6644 37.84 17.5964 41.976L21.9964 44L26.3964 41.976C35.3284 37.84 41.0631 28.8934 41.0631 19.0373V4.4C38.3645 4.092 35.4165 3.62258 32.2631 2.93329ZM30.7964 29.3333C30.7964 30.9466 29.4764 32.2666 27.8631 32.2666H16.1297C14.5164 32.2666 13.1964 30.9466 13.1964 29.3333V19.0666C13.1964 17.4533 14.5164 16.1333 16.1297 16.1333V14.6666C16.1297 11.4251 18.7551 8.79986 21.9964 8.79986C25.2377 8.79986 27.8631 11.4251 27.8631 14.6666V16.1333C29.4765 16.1333 30.7964 17.4533 30.7964 19.0666V29.3333ZM16.1297 19.0667V29.3334H27.863V19.0667H16.1297ZM24.9297 14.6666C24.9297 13.0533 23.6097 11.7333 21.9964 11.7333C20.3831 11.7333 19.0631 13.0533 19.0631 14.6666V16.1333H24.9298L24.9297 14.6666Z" fill="url(#paint0_linear_3105_25123)"/>
<defs>
<linearGradient id="paint0_linear_3105_25123" x1="72.7432" y1="-43.5426" x2="-7.22413" y2="31.5059" gradientUnits="userSpaceOnUse">
<stop stop-color="#FBFF25"/>
<stop offset="1" stop-color="#FF0000"/>
</linearGradient>
</defs>
</svg>
