<svg width="45" height="46" viewBox="0 0 45 46" fill="none" xmlns="http://www.w3.org/2000/svg">
<path d="M38 13.625V32.375C38 39.875 36.125 41.75 28.625 41.75H17.375C9.875 41.75 8 39.875 8 32.375V13.625C8 6.125 9.875 4.25 17.375 4.25H28.625C36.125 4.25 38 6.125 38 13.625Z" stroke="url(#paint0_linear_7571_17889)" stroke-width="2.8125" stroke-linecap="round" stroke-linejoin="round"/>
<path d="M26.75 10.8125H19.25" stroke="url(#paint1_linear_7571_17889)" stroke-width="2.8125" stroke-linecap="round" stroke-linejoin="round"/>
<path d="M23.0078 36.3125C24.6129 36.3125 25.9141 35.0113 25.9141 33.4062C25.9141 31.8012 24.6129 30.5 23.0078 30.5C21.4027 30.5 20.1016 31.8012 20.1016 33.4062C20.1016 35.0113 21.4027 36.3125 23.0078 36.3125Z" stroke="url(#paint2_linear_7571_17889)" stroke-width="2.8125" stroke-linecap="round" stroke-linejoin="round"/>
<defs>
<linearGradient id="paint0_linear_7571_17889" x1="62.9231" y1="-32.8601" x2="-4.67083" y2="25.6962" gradientUnits="userSpaceOnUse">
<stop stop-color="#FBFF25"/>
<stop offset="1" stop-color="#FF0000"/>
</linearGradient>
<linearGradient id="paint1_linear_7571_17889" x1="32.9808" y1="9.8229" x2="32.539" y2="13.4107" gradientUnits="userSpaceOnUse">
<stop stop-color="#FBFF25"/>
<stop offset="1" stop-color="#FF0000"/>
</linearGradient>
<linearGradient id="paint2_linear_7571_17889" x1="30.7429" y1="24.7479" x2="20.1912" y2="36.174" gradientUnits="userSpaceOnUse">
<stop stop-color="#FBFF25"/>
<stop offset="1" stop-color="#FF0000"/>
</linearGradient>
</defs>
</svg>
