<svg width="180" height="62" viewBox="0 0 180 62" fill="none" xmlns="http://www.w3.org/2000/svg">
<g clip-path="url(#clip0_948_1150)">
<path d="M30.4702 22.4051H36.2106V28.1733V33.9415H41.1312C41.2951 32.9527 41.4592 31.9638 41.4592 30.975C41.4592 21.5811 33.9145 14 24.5655 14C16.2008 14 9.31212 20.0978 8 28.1733H13.2485V22.4051H18.989V28.1733H24.5655V22.4051H30.4702Z" fill="#FF4545"/>
<path d="M36.2106 39.7096H30.4702H24.5655V33.9414H18.989V39.7096H13.2485V33.9414H8C9.31212 41.8521 16.3648 47.9499 24.5655 47.9499C30.6341 47.9499 36.0467 44.6538 38.9989 39.7096H36.2106Z" fill="#FF4545"/>
<path d="M30.4748 28.1738H24.5703V33.9421H30.4748V28.1738Z" fill="#FF4545"/>
<path d="M51.1395 34.4375C51.3036 35.2615 51.4675 35.9207 51.7956 36.4151C52.4515 37.2391 53.5997 37.5688 55.2398 37.5688C56.224 37.5688 57.044 37.404 57.536 37.2391C58.6842 36.9095 59.1762 36.0855 59.1762 35.0967C59.1762 34.4375 58.8482 33.943 58.3562 33.6135C57.8642 33.2838 56.8801 32.9542 55.732 32.7893L53.5997 32.1302C51.6315 31.6358 50.1554 31.1413 49.4994 30.647C48.1872 29.8228 47.5311 28.3396 47.5311 26.5268C47.5311 24.8787 48.1872 23.3954 49.3353 22.2418C50.6475 21.0882 52.4515 20.5938 54.7478 20.5938C56.716 20.5938 58.5202 21.0882 59.8323 22.2418C61.3085 23.2306 61.9645 24.8787 62.1285 26.8563H58.3562C58.3562 25.7027 57.7001 24.8787 56.8801 24.3843C56.224 24.0547 55.4039 23.8899 54.5839 23.8899C53.5997 23.8899 52.7797 24.0547 52.1236 24.5491C51.4675 24.8787 51.1395 25.5379 51.1395 26.1971C51.1395 26.8563 51.4675 27.3508 52.1236 27.6803C52.4515 27.8452 53.4357 28.1748 54.5839 28.5045L57.8642 29.3285C59.3402 29.658 60.3243 30.1525 61.1444 30.647C62.2926 31.471 62.7846 32.7893 62.7846 34.6023C62.7846 36.4151 62.1285 37.7335 60.8163 38.8872C59.5043 40.0408 57.5361 40.5353 55.2398 40.5353C52.7797 40.5353 50.8114 40.0408 49.3353 38.8872C47.8592 37.7335 47.2031 36.2503 47.2031 34.2726H51.1395V34.4375Z" fill="white"/>
<path d="M71.9586 26.1953H75.731L77.8632 36.2485L79.9954 26.1953H83.7677L79.6673 40.2038H75.8949L73.7628 29.9858L71.4665 40.2038H67.6942L63.7578 26.1953H67.6942L69.8264 36.2485L71.9586 26.1953Z" fill="white"/>
<path d="M89.6787 24.5469H85.9062V21.0859H89.6787V24.5469ZM85.9062 26.1949H89.6787V40.2034H85.9062V26.1949Z" fill="white"/>
<path d="M95.913 35.7544C95.913 36.4136 96.077 36.9079 96.4051 37.0728C96.8971 37.5672 97.7172 37.7319 98.8653 37.7319C99.5214 37.7319 100.177 37.5672 100.505 37.4024C100.997 37.2376 101.162 36.9079 101.162 36.4136C101.162 36.0839 100.997 35.7544 100.669 35.4247C100.341 35.2599 99.0293 34.7654 96.8971 34.2711C95.257 33.9414 94.2728 33.4471 93.6169 32.7879C92.9608 32.1286 92.6327 31.3046 92.6327 30.3157C92.6327 28.9973 93.1247 27.8436 94.1089 27.0196C95.093 26.0308 96.569 25.7012 98.3732 25.7012C100.177 25.7012 101.489 26.0308 102.638 26.69C103.786 27.3492 104.442 28.6677 104.606 30.3157H100.997C100.997 29.8214 100.834 29.4917 100.669 29.1621C100.341 28.6677 99.5214 28.3381 98.5373 28.3381C97.7172 28.3381 97.2251 28.5029 96.8971 28.6677C96.569 28.9973 96.4051 29.1621 96.4051 29.4917C96.4051 29.9861 96.569 30.1509 96.8971 30.4806C97.2251 30.6454 98.5373 30.9749 100.669 31.4694C102.146 31.7989 103.294 32.2934 103.95 32.9526C104.606 33.6119 105.098 34.6007 105.098 35.5896C105.098 36.9079 104.606 38.0616 103.622 39.0504C102.638 40.0393 100.997 40.3689 98.8653 40.3689C96.7331 40.3689 95.093 39.8744 93.9448 39.0504C92.9608 38.0616 92.3047 36.9079 92.3047 35.4247H95.913V35.7544Z" fill="white"/>
<path d="M110.515 35.7544C110.515 36.4136 110.679 36.9079 111.007 37.0728C111.499 37.5672 112.319 37.7319 113.467 37.7319C114.123 37.7319 114.779 37.5672 115.107 37.4024C115.599 37.2376 115.763 36.9079 115.763 36.4136C115.763 36.0839 115.599 35.7544 115.271 35.4247C114.943 35.2599 113.631 34.7654 111.499 34.2711C109.859 33.9414 108.875 33.4471 108.218 32.7879C107.562 32.1286 107.234 31.3046 107.234 30.3157C107.234 28.9973 107.726 27.8436 108.71 27.0196C109.695 26.0308 111.171 25.7012 112.975 25.7012C114.779 25.7012 116.091 26.0308 117.239 26.69C118.387 27.3492 119.043 28.6677 119.207 30.3157H115.599C115.599 29.8214 115.435 29.4917 115.271 29.1621C114.943 28.6677 114.123 28.3381 113.139 28.3381C112.319 28.3381 111.827 28.5029 111.499 28.6677C111.171 28.9973 111.007 29.1621 111.007 29.4917C111.007 29.9861 111.171 30.1509 111.499 30.4806C111.827 30.6454 113.139 30.9749 115.271 31.4694C116.747 31.7989 117.895 32.2934 118.551 32.9526C119.207 33.6119 119.699 34.6007 119.699 35.5896C119.699 36.9079 119.207 38.0616 118.223 39.0504C117.239 40.0393 115.599 40.3689 113.467 40.3689C111.335 40.3689 109.695 39.8744 108.546 39.0504C107.562 38.0616 106.906 36.9079 106.906 35.4247H110.515V35.7544Z" fill="white"/>
<path d="M137.245 38.5576C135.77 40.0408 133.801 40.7 131.013 40.7C128.389 40.7 126.257 40.0408 124.78 38.5576C122.812 36.7447 121.828 34.1078 121.828 30.647C121.828 27.186 122.812 24.5491 124.78 22.7362C126.257 21.253 128.225 20.5938 131.013 20.5938C133.637 20.5938 135.77 21.253 137.245 22.7362C139.213 24.5491 140.034 27.0212 140.034 30.647C140.034 34.1078 139.05 36.7447 137.245 38.5576ZM134.785 35.7558C135.77 34.6023 136.097 32.9542 136.097 30.8117C136.097 28.6693 135.605 27.0212 134.785 25.8675C133.801 24.7139 132.654 24.0547 131.013 24.0547C129.373 24.0547 128.225 24.7139 127.241 25.8675C126.257 27.0212 125.765 28.6693 125.765 30.8117C125.765 32.9542 126.257 34.6023 127.241 35.7558C128.225 36.9095 129.373 37.5688 131.013 37.5688C132.654 37.5688 133.801 36.9095 134.785 35.7558Z" fill="white"/>
<path d="M153.982 27.0209C154.965 27.8449 155.294 28.9985 155.294 30.8114V40.2052H151.522V31.6354C151.522 30.9762 151.357 30.3169 151.193 29.9874C150.866 29.3281 150.21 28.8337 149.225 28.8337C147.913 28.8337 147.092 29.3281 146.765 30.4817C146.601 30.9762 146.437 31.8002 146.437 32.6242V40.2052H142.828V26.1967H146.437V28.1745C146.929 27.5152 147.421 26.856 147.748 26.6912C148.569 26.1967 149.389 25.8672 150.537 25.8672C151.849 25.8672 153.161 26.1967 153.982 27.0209Z" fill="white"/>
<path d="M167.927 26.5264C168.911 27.0209 169.732 27.68 170.388 28.6689C170.88 29.4929 171.371 30.4817 171.536 31.6354C171.7 32.2947 171.7 33.2834 171.7 34.4371H161.53C161.53 35.9204 162.023 36.9092 163.007 37.4036C163.498 37.7332 164.155 37.898 164.975 37.898C165.795 37.898 166.451 37.7332 166.943 37.2387C167.271 37.074 167.435 36.7444 167.764 36.2499H171.536C171.371 37.074 171.044 37.898 170.224 38.722C168.911 40.0405 167.271 40.6997 164.975 40.6997C163.171 40.6997 161.53 40.2052 160.055 39.0517C158.578 37.898 157.922 36.0852 157.922 33.4482C157.922 30.9762 158.578 29.1632 159.891 27.8449C161.203 26.5264 162.842 25.8672 164.811 25.8672C165.795 25.8672 166.943 26.032 167.927 26.5264ZM162.351 29.6577C161.859 30.1522 161.53 30.9762 161.367 31.8002H167.599C167.599 30.8114 167.271 30.1522 166.616 29.6577C166.123 29.1632 165.467 28.8337 164.646 28.8337C163.663 28.8337 163.007 29.1632 162.351 29.6577Z" fill="white"/>
</g>
<defs>
<clipPath id="clip0_948_1150">
<rect width="163.687" height="33.95" fill="white" transform="translate(8 14)"/>
</clipPath>
</defs>
</svg>
