<svg width="52" height="52" viewBox="0 0 52 52" fill="none" xmlns="http://www.w3.org/2000/svg">
<rect x="0.5" y="0.5" width="51" height="51" rx="7.5" fill="url(#paint0_linear_1018_2378)"/>
<rect x="0.5" y="0.5" width="51" height="51" rx="7.5" stroke="url(#paint1_linear_1018_2378)"/>
<g clip-path="url(#clip0_1018_2378)">
<path d="M22.0124 21.7666C23.0714 20.7436 24.4814 20.1796 25.9844 20.1796C27.4874 20.1796 28.898 20.7436 29.9564 21.7666C30.0788 21.8848 30.2366 21.9436 30.3944 21.9436C30.5522 21.9436 30.7238 21.8794 30.8474 21.7516C31.0892 21.5014 31.0826 21.103 30.833 20.8612C29.537 19.6096 27.815 18.9202 25.9844 18.9202C24.1538 18.9202 22.4318 19.6096 21.1364 20.8612C20.8862 21.1024 20.8796 21.502 21.1214 21.7516C21.3632 22.0012 21.7622 22.009 22.0118 21.7666H22.0124Z" fill="#FE490B"/>
<path d="M29.1339 23.9596C29.2989 23.9596 29.4633 23.8954 29.5869 23.7676C29.8287 23.5174 29.8221 23.119 29.5719 22.8772C28.6125 21.9508 27.3381 21.4402 25.9845 21.4402C24.6309 21.4402 23.3565 21.9502 22.3977 22.8772C22.1475 23.119 22.1409 23.518 22.3827 23.7676C22.6233 24.0178 23.0241 24.025 23.2725 23.7826C23.9955 23.0842 24.9579 22.6996 25.9845 22.6996C27.0111 22.6996 27.9729 23.0836 28.6971 23.7826C28.8189 23.9008 28.9767 23.9596 29.1345 23.9596H29.1339Z" fill="#FE490B"/>
<path d="M23.9718 24.7667C23.7222 25.0085 23.7156 25.4075 23.9574 25.6571C24.1998 25.9073 24.5982 25.9139 24.8478 25.6721C25.452 25.0877 26.517 25.0877 27.1212 25.6721C27.2436 25.7903 27.4014 25.8491 27.5592 25.8491C27.717 25.8491 27.888 25.7849 28.0122 25.6571C28.254 25.4069 28.2474 25.0085 27.9978 24.7667C27.4584 24.2465 26.7438 23.9597 25.9848 23.9597C25.2258 23.9597 24.5106 24.2465 23.9724 24.7667H23.9718Z" fill="#FE490B"/>
<g filter="url(#filter0_d_1018_2378)">
<path d="M37.3266 27.4119H14.6418C13.0611 27.4119 11.7798 28.6932 11.7798 30.2739V30.2745C11.7798 31.8551 13.0611 33.1365 14.6418 33.1365H37.3266C38.9072 33.1365 40.1886 31.8551 40.1886 30.2745V30.2739C40.1886 28.6932 38.9072 27.4119 37.3266 27.4119Z" fill="url(#paint2_linear_1018_2378)"/>
<path d="M14.6418 27.8022H37.3266C38.6917 27.8022 39.7983 28.9088 39.7983 30.2739V30.2745C39.7983 31.6395 38.6917 32.7462 37.3266 32.7462H14.6418C13.2767 32.7462 12.1701 31.6395 12.1701 30.2745V30.2739C12.1701 28.9088 13.2767 27.8022 14.6418 27.8022Z" stroke="url(#paint3_linear_1018_2378)" stroke-width="0.780623"/>
</g>
<path d="M36.5913 30.8745C36.923 30.8745 37.1919 30.6056 37.1919 30.2739C37.1919 29.9422 36.923 29.6733 36.5913 29.6733C36.2596 29.6733 35.9907 29.9422 35.9907 30.2739C35.9907 30.6056 36.2596 30.8745 36.5913 30.8745Z" fill="white"/>
<path d="M34.1904 30.8745C34.5221 30.8745 34.791 30.6056 34.791 30.2739C34.791 29.9422 34.5221 29.6733 34.1904 29.6733C33.8587 29.6733 33.5898 29.9422 33.5898 30.2739C33.5898 30.6056 33.8587 30.8745 34.1904 30.8745Z" fill="white"/>
<path d="M31.7886 30.8745C32.1203 30.8745 32.3892 30.6056 32.3892 30.2739C32.3892 29.9422 32.1203 29.6733 31.7886 29.6733C31.4569 29.6733 31.188 29.9422 31.188 30.2739C31.188 30.6056 31.4569 30.8745 31.7886 30.8745Z" fill="white"/>
</g>
<defs>
<filter id="filter0_d_1018_2378" x="2.41231" y="18.0444" width="47.1436" height="24.4596" filterUnits="userSpaceOnUse" color-interpolation-filters="sRGB">
<feFlood flood-opacity="0" result="BackgroundImageFix"/>
<feColorMatrix in="SourceAlpha" type="matrix" values="0 0 0 0 0 0 0 0 0 0 0 0 0 0 0 0 0 0 127 0" result="hardAlpha"/>
<feOffset/>
<feGaussianBlur stdDeviation="4.68374"/>
<feComposite in2="hardAlpha" operator="out"/>
<feColorMatrix type="matrix" values="0 0 0 0 0.996078 0 0 0 0 0.376471 0 0 0 0 0.054902 0 0 0 0.3 0"/>
<feBlend mode="normal" in2="BackgroundImageFix" result="effect1_dropShadow_1018_2378"/>
<feBlend mode="normal" in="SourceGraphic" in2="effect1_dropShadow_1018_2378" result="shape"/>
</filter>
<linearGradient id="paint0_linear_1018_2378" x1="26" y1="0" x2="26" y2="52" gradientUnits="userSpaceOnUse">
<stop stop-color="#26262C"/>
<stop offset="1" stop-color="#343439"/>
</linearGradient>
<linearGradient id="paint1_linear_1018_2378" x1="95.2" y1="-51.4594" x2="0.802002" y2="50.7613" gradientUnits="userSpaceOnUse">
<stop stop-color="#FBFF25"/>
<stop offset="1" stop-color="#FF0000"/>
</linearGradient>
<linearGradient id="paint2_linear_1018_2378" x1="63.7897" y1="21.7468" x2="60.0397" y2="41.8991" gradientUnits="userSpaceOnUse">
<stop stop-color="#FBFF25"/>
<stop offset="1" stop-color="#FF0000"/>
</linearGradient>
<linearGradient id="paint3_linear_1018_2378" x1="25.9842" y1="27.4119" x2="25.9842" y2="33.1365" gradientUnits="userSpaceOnUse">
<stop stop-color="#EE6429"/>
<stop offset="1" stop-color="#FF7020" stop-opacity="0"/>
</linearGradient>
<clipPath id="clip0_1018_2378">
<rect width="28.4088" height="14.2164" fill="white" transform="translate(11.7798 18.9202)"/>
</clipPath>
</defs>
</svg>
