<svg width="54" height="53" viewBox="0 0 54 53" fill="none" xmlns="http://www.w3.org/2000/svg">
<rect x="1.4502" y="0.5" width="51.1121" height="51.1121" rx="7.5" fill="url(#paint0_linear_1018_2403)"/>
<rect x="1.4502" y="0.5" width="51.1121" height="51.1121" rx="7.5" stroke="url(#paint1_linear_1018_2403)"/>
<g clip-path="url(#clip0_1018_2403)">
<g filter="url(#filter0_i_1018_2403)">
<path d="M23.0065 14.948C24.0688 13.9218 25.4832 13.3561 26.9908 13.3561C28.4985 13.3561 29.9135 13.9218 30.9752 14.948C31.098 15.0666 31.2563 15.1256 31.4146 15.1256C31.5729 15.1256 31.745 15.0612 31.869 14.933C32.1115 14.682 32.1049 14.2824 31.8545 14.0398C30.5545 12.7843 28.8271 12.0928 26.9908 12.0928C25.1545 12.0928 23.4272 12.7843 22.1277 14.0398C21.8768 14.2818 21.8701 14.6826 22.1127 14.933C22.3553 15.1834 22.7555 15.1912 23.0059 14.948H23.0065Z" fill="#FE490B"/>
</g>
<g filter="url(#filter1_i_1018_2403)">
<path d="M30.1501 17.1478C30.3156 17.1478 30.4805 17.0834 30.6045 16.9553C30.847 16.7043 30.8404 16.3046 30.5894 16.0621C29.627 15.1328 28.3487 14.6206 26.9908 14.6206C25.633 14.6206 24.3547 15.1322 23.3929 16.0621C23.1419 16.3046 23.1353 16.7049 23.3778 16.9553C23.6192 17.2062 24.0212 17.2135 24.2704 16.9703C24.9957 16.2697 25.9611 15.8839 26.9908 15.8839C28.0206 15.8839 28.9854 16.2691 29.7119 16.9703C29.8341 17.0889 29.9924 17.1478 30.1507 17.1478H30.1501Z" fill="#FE490B"/>
</g>
<g filter="url(#filter2_i_1018_2403)">
<path d="M24.9724 17.9572C24.7221 18.1998 24.7154 18.6 24.958 18.8504C25.2011 19.1014 25.6008 19.108 25.8512 18.8654C26.4572 18.2792 27.5256 18.2792 28.1316 18.8654C28.2544 18.984 28.4127 19.043 28.571 19.043C28.7293 19.043 28.9008 18.9786 29.0254 18.8504C29.268 18.5994 29.2613 18.1998 29.011 17.9572C28.4699 17.4354 27.7531 17.1477 26.9917 17.1477C26.2303 17.1477 25.5129 17.4354 24.973 17.9572H24.9724Z" fill="#FE490B"/>
</g>
<g filter="url(#filter3_d_1018_2403)">
<path d="M38.368 20.6108H15.6126C14.027 20.6108 12.7417 21.8962 12.7417 23.4817V23.4824C12.7417 25.0679 14.027 26.3533 15.6126 26.3533H38.368C39.9536 26.3533 41.2389 25.0679 41.2389 23.4824V23.4817C41.2389 21.8962 39.9536 20.6108 38.368 20.6108Z" fill="url(#paint2_linear_1018_2403)"/>
<path d="M15.6126 21.0012H38.368C39.738 21.0012 40.8486 22.1118 40.8486 23.4817V23.4824C40.8486 24.8523 39.738 25.9629 38.368 25.9629H15.6126C14.2426 25.9629 13.132 24.8523 13.132 23.4824V23.4817C13.132 22.1118 14.2426 21.0012 15.6126 21.0012Z" stroke="url(#paint3_linear_1018_2403)" stroke-width="0.780623"/>
</g>
<g filter="url(#filter4_d_1018_2403)">
<path d="M38.368 27.4175H15.6126C14.027 27.4175 12.7417 28.7028 12.7417 30.2884V30.289C12.7417 31.8745 14.027 33.1599 15.6126 33.1599H38.368C39.9536 33.1599 41.2389 31.8745 41.2389 30.289V30.2884C41.2389 28.7028 39.9536 27.4175 38.368 27.4175Z" fill="url(#paint4_linear_1018_2403)"/>
<path d="M15.6126 27.8078H38.368C39.738 27.8078 40.8486 28.9184 40.8486 30.2884V30.289C40.8486 31.659 39.738 32.7696 38.368 32.7696H15.6126C14.2426 32.7696 13.132 31.659 13.132 30.289V30.2884C13.132 28.9184 14.2426 27.8078 15.6126 27.8078Z" stroke="url(#paint5_linear_1018_2403)" stroke-width="0.780623"/>
</g>
<g filter="url(#filter5_d_1018_2403)">
<path d="M38.368 34.2241H15.6126C14.027 34.2241 12.7417 35.5095 12.7417 37.095V37.0956C12.7417 38.6812 14.027 39.9665 15.6126 39.9665H38.368C39.9536 39.9665 41.2389 38.6812 41.2389 37.0956V37.095C41.2389 35.5095 39.9536 34.2241 38.368 34.2241Z" fill="url(#paint6_linear_1018_2403)"/>
<path d="M15.6126 34.6144H38.368C39.738 34.6144 40.8486 35.725 40.8486 37.095V37.0956C40.8486 38.4656 39.738 39.5762 38.368 39.5762H15.6126C14.2426 39.5762 13.132 38.4656 13.132 37.0956V37.095C13.132 35.725 14.2426 34.6144 15.6126 34.6144Z" stroke="url(#paint7_linear_1018_2403)" stroke-width="0.780623"/>
</g>
<path d="M37.6308 24.0841C37.9635 24.0841 38.2333 23.8144 38.2333 23.4816C38.2333 23.1489 37.9635 22.8792 37.6308 22.8792C37.2981 22.8792 37.0283 23.1489 37.0283 23.4816C37.0283 23.8144 37.2981 24.0841 37.6308 24.0841Z" fill="white"/>
<path d="M35.2216 24.0841C35.5543 24.0841 35.8241 23.8144 35.8241 23.4816C35.8241 23.1489 35.5543 22.8792 35.2216 22.8792C34.8889 22.8792 34.6191 23.1489 34.6191 23.4816C34.6191 23.8144 34.8889 24.0841 35.2216 24.0841Z" fill="white"/>
<path d="M32.8119 24.0841C33.1447 24.0841 33.4144 23.8144 33.4144 23.4816C33.4144 23.1489 33.1447 22.8792 32.8119 22.8792C32.4792 22.8792 32.2095 23.1489 32.2095 23.4816C32.2095 23.8144 32.4792 24.0841 32.8119 24.0841Z" fill="white"/>
</g>
<defs>
<filter id="filter0_i_1018_2403" x="21.9351" y="12.0928" width="10.1118" height="3.42449" filterUnits="userSpaceOnUse" color-interpolation-filters="sRGB">
<feFlood flood-opacity="0" result="BackgroundImageFix"/>
<feBlend mode="normal" in="SourceGraphic" in2="BackgroundImageFix" result="shape"/>
<feColorMatrix in="SourceAlpha" type="matrix" values="0 0 0 0 0 0 0 0 0 0 0 0 0 0 0 0 0 0 127 0" result="hardAlpha"/>
<feOffset dy="0.391526"/>
<feGaussianBlur stdDeviation="0.195763"/>
<feComposite in2="hardAlpha" operator="arithmetic" k2="-1" k3="1"/>
<feColorMatrix type="matrix" values="0 0 0 0 0.14902 0 0 0 0 0.14902 0 0 0 0 0.164706 0 0 0 0.88 0"/>
<feBlend mode="normal" in2="shape" result="effect1_innerShadow_1018_2403"/>
</filter>
<filter id="filter1_i_1018_2403" x="23.2002" y="14.6206" width="7.58203" height="2.91911" filterUnits="userSpaceOnUse" color-interpolation-filters="sRGB">
<feFlood flood-opacity="0" result="BackgroundImageFix"/>
<feBlend mode="normal" in="SourceGraphic" in2="BackgroundImageFix" result="shape"/>
<feColorMatrix in="SourceAlpha" type="matrix" values="0 0 0 0 0 0 0 0 0 0 0 0 0 0 0 0 0 0 127 0" result="hardAlpha"/>
<feOffset dy="0.391526"/>
<feGaussianBlur stdDeviation="0.195763"/>
<feComposite in2="hardAlpha" operator="arithmetic" k2="-1" k3="1"/>
<feColorMatrix type="matrix" values="0 0 0 0 0.14902 0 0 0 0 0.14902 0 0 0 0 0.164706 0 0 0 0.88 0"/>
<feBlend mode="normal" in2="shape" result="effect1_innerShadow_1018_2403"/>
</filter>
<filter id="filter2_i_1018_2403" x="24.7803" y="17.1477" width="4.42285" height="2.28679" filterUnits="userSpaceOnUse" color-interpolation-filters="sRGB">
<feFlood flood-opacity="0" result="BackgroundImageFix"/>
<feBlend mode="normal" in="SourceGraphic" in2="BackgroundImageFix" result="shape"/>
<feColorMatrix in="SourceAlpha" type="matrix" values="0 0 0 0 0 0 0 0 0 0 0 0 0 0 0 0 0 0 127 0" result="hardAlpha"/>
<feOffset dy="0.391526"/>
<feGaussianBlur stdDeviation="0.195763"/>
<feComposite in2="hardAlpha" operator="arithmetic" k2="-1" k3="1"/>
<feColorMatrix type="matrix" values="0 0 0 0 0.14902 0 0 0 0 0.14902 0 0 0 0 0.164706 0 0 0 0.88 0"/>
<feBlend mode="normal" in2="shape" result="effect1_innerShadow_1018_2403"/>
</filter>
<filter id="filter3_d_1018_2403" x="3.37422" y="11.2434" width="47.232" height="24.4774" filterUnits="userSpaceOnUse" color-interpolation-filters="sRGB">
<feFlood flood-opacity="0" result="BackgroundImageFix"/>
<feColorMatrix in="SourceAlpha" type="matrix" values="0 0 0 0 0 0 0 0 0 0 0 0 0 0 0 0 0 0 127 0" result="hardAlpha"/>
<feOffset/>
<feGaussianBlur stdDeviation="4.68374"/>
<feComposite in2="hardAlpha" operator="out"/>
<feColorMatrix type="matrix" values="0 0 0 0 0.996078 0 0 0 0 0.376471 0 0 0 0 0.054902 0 0 0 0.3 0"/>
<feBlend mode="normal" in2="BackgroundImageFix" result="effect1_dropShadow_1018_2403"/>
<feBlend mode="normal" in="SourceGraphic" in2="effect1_dropShadow_1018_2403" result="shape"/>
</filter>
<filter id="filter4_d_1018_2403" x="3.37422" y="18.05" width="47.232" height="24.4774" filterUnits="userSpaceOnUse" color-interpolation-filters="sRGB">
<feFlood flood-opacity="0" result="BackgroundImageFix"/>
<feColorMatrix in="SourceAlpha" type="matrix" values="0 0 0 0 0 0 0 0 0 0 0 0 0 0 0 0 0 0 127 0" result="hardAlpha"/>
<feOffset/>
<feGaussianBlur stdDeviation="4.68374"/>
<feComposite in2="hardAlpha" operator="out"/>
<feColorMatrix type="matrix" values="0 0 0 0 0.996078 0 0 0 0 0.376471 0 0 0 0 0.054902 0 0 0 0.3 0"/>
<feBlend mode="normal" in2="BackgroundImageFix" result="effect1_dropShadow_1018_2403"/>
<feBlend mode="normal" in="SourceGraphic" in2="effect1_dropShadow_1018_2403" result="shape"/>
</filter>
<filter id="filter5_d_1018_2403" x="3.37422" y="24.8566" width="47.232" height="24.4774" filterUnits="userSpaceOnUse" color-interpolation-filters="sRGB">
<feFlood flood-opacity="0" result="BackgroundImageFix"/>
<feColorMatrix in="SourceAlpha" type="matrix" values="0 0 0 0 0 0 0 0 0 0 0 0 0 0 0 0 0 0 127 0" result="hardAlpha"/>
<feOffset/>
<feGaussianBlur stdDeviation="4.68374"/>
<feComposite in2="hardAlpha" operator="out"/>
<feColorMatrix type="matrix" values="0 0 0 0 0.996078 0 0 0 0 0.376471 0 0 0 0 0.054902 0 0 0 0.3 0"/>
<feBlend mode="normal" in2="BackgroundImageFix" result="effect1_dropShadow_1018_2403"/>
<feBlend mode="normal" in="SourceGraphic" in2="effect1_dropShadow_1018_2403" result="shape"/>
</filter>
<linearGradient id="paint0_linear_1018_2403" x1="27.0062" y1="0" x2="27.0062" y2="52.1121" gradientUnits="userSpaceOnUse">
<stop stop-color="#26262C"/>
<stop offset="1" stop-color="#343439"/>
</linearGradient>
<linearGradient id="paint1_linear_1018_2403" x1="96.3553" y1="-51.5703" x2="1.75393" y2="50.8707" gradientUnits="userSpaceOnUse">
<stop stop-color="#FBFF25"/>
<stop offset="1" stop-color="#FF0000"/>
</linearGradient>
<linearGradient id="paint2_linear_1018_2403" x1="64.9135" y1="14.9281" x2="61.1518" y2="35.1432" gradientUnits="userSpaceOnUse">
<stop stop-color="#FBFF25"/>
<stop offset="1" stop-color="#FF0000"/>
</linearGradient>
<linearGradient id="paint3_linear_1018_2403" x1="26.9903" y1="20.6108" x2="26.9903" y2="26.3533" gradientUnits="userSpaceOnUse">
<stop stop-color="#EE6429"/>
<stop offset="1" stop-color="#FF7020" stop-opacity="0"/>
</linearGradient>
<linearGradient id="paint4_linear_1018_2403" x1="64.9135" y1="21.7348" x2="61.1518" y2="41.9498" gradientUnits="userSpaceOnUse">
<stop stop-color="#FBFF25"/>
<stop offset="1" stop-color="#FF0000"/>
</linearGradient>
<linearGradient id="paint5_linear_1018_2403" x1="26.9903" y1="27.4175" x2="26.9903" y2="33.1599" gradientUnits="userSpaceOnUse">
<stop stop-color="#EE6429"/>
<stop offset="1" stop-color="#FF7020" stop-opacity="0"/>
</linearGradient>
<linearGradient id="paint6_linear_1018_2403" x1="64.9135" y1="28.5414" x2="61.1518" y2="48.7564" gradientUnits="userSpaceOnUse">
<stop stop-color="#FBFF25"/>
<stop offset="1" stop-color="#FF0000"/>
</linearGradient>
<linearGradient id="paint7_linear_1018_2403" x1="26.9903" y1="34.2241" x2="26.9903" y2="39.9665" gradientUnits="userSpaceOnUse">
<stop stop-color="#EE6429"/>
<stop offset="1" stop-color="#FF7020" stop-opacity="0"/>
</linearGradient>
<clipPath id="clip0_1018_2403">
<rect width="28.4972" height="27.8737" fill="white" transform="translate(12.7417 12.0928)"/>
</clipPath>
</defs>
</svg>
