<svg width="44" height="45" viewBox="0 0 44 45" fill="none" xmlns="http://www.w3.org/2000/svg">
<g clip-path="url(#clip0_3222_6798)">
<g filter="url(#filter0_d_3222_6798)">
<path d="M40.0469 7.00879H3.95312C1.77341 7.00879 0 8.7822 0 10.9619V33.3057C0 35.4854 1.77341 37.2588 3.95312 37.2588H40.0469C42.2266 37.2588 44 35.4854 44 33.3057V10.9619C44 8.7822 42.2266 7.00879 40.0469 7.00879ZM13.75 19.04C13.75 20.746 12.3622 22.1338 10.6562 22.1338H8.59375C6.8878 22.1338 5.5 20.746 5.5 19.04V16.9775C5.5 15.2716 6.8878 13.8838 8.59375 13.8838H10.6562C12.3622 13.8838 13.75 15.2716 13.75 16.9775V19.04ZM31.4273 26.062C31.1292 26.062 30.8291 25.9656 30.5769 25.7668C29.9806 25.2966 29.8781 24.4321 30.3483 23.8357C30.7338 23.3469 30.9375 22.7583 30.9375 22.1338C30.9375 21.5093 30.7338 20.9207 30.3484 20.4318C29.8782 19.8355 29.9807 18.9709 30.577 18.5007C31.1733 18.0307 32.0379 18.1329 32.5081 18.7293C33.2686 19.6942 33.6875 20.9032 33.6875 22.1338C33.6875 23.3643 33.2686 24.5734 32.508 25.5382C32.2367 25.8824 31.834 26.062 31.4273 26.062ZM35.865 29.0188C35.5935 29.3213 35.2181 29.4754 34.8412 29.4754C34.514 29.4754 34.1859 29.3594 33.9232 29.1238C33.3581 28.6167 33.311 27.7472 33.8182 27.1821C35.064 25.7939 35.75 24.001 35.75 22.1338C35.75 20.2665 35.064 18.4737 33.8182 17.0855C33.311 16.5203 33.3581 15.6509 33.9232 15.1438C34.4884 14.6367 35.3577 14.6836 35.865 15.2488C37.5641 17.1424 38.5 19.5875 38.5 22.1338C38.5 24.68 37.5641 27.1252 35.865 29.0188Z" fill="url(#paint0_linear_3222_6798)"/>
<path d="M29.8886 23.4731L29.8885 23.4732C29.2181 24.3236 29.3643 25.5563 30.2144 26.2265L30.2145 26.2266C30.5736 26.5096 31.0024 26.6475 31.4273 26.6475C32.0056 26.6475 32.5808 26.3916 32.9678 25.9006C33.81 24.8324 34.273 23.4956 34.273 22.1338C34.273 20.772 33.81 19.4352 32.9679 18.3669L32.9679 18.3668C32.2975 17.5164 31.0647 17.3708 30.2146 18.0409L30.2145 18.0409C29.3644 18.7112 29.2182 19.9439 29.8886 20.7943C30.1923 21.1795 30.352 21.6403 30.352 22.1338C30.352 22.6273 30.1923 23.088 29.8886 23.4731ZM33.5322 29.5595L33.5322 29.5595C33.9064 29.8952 34.3753 30.0609 34.8412 30.0609C35.3774 30.0609 35.9136 29.8413 36.3007 29.4098C38.0964 27.4087 39.0855 24.8242 39.0855 22.1338C39.0855 19.4433 38.0964 16.8589 36.3007 14.8578L36.3007 14.8578C35.5774 14.0519 34.3381 13.985 33.5322 14.708L33.5322 14.7081C32.7264 15.4311 32.6593 16.6706 33.3825 17.4765C34.5317 18.7572 35.1645 20.4107 35.1645 22.1338C35.1645 23.8569 34.5317 25.5104 33.3825 26.791C32.6593 27.5969 32.7265 28.8365 33.5322 29.5595ZM3.95312 7.59426H40.0469C41.9032 7.59426 43.4145 9.10554 43.4145 10.9619V33.3057C43.4145 35.162 41.9032 36.6733 40.0469 36.6733H3.95312C2.09675 36.6733 0.585467 35.162 0.585467 33.3057V10.9619C0.585467 9.10554 2.09675 7.59426 3.95312 7.59426ZM10.6562 22.7193C12.6855 22.7193 14.3355 21.0693 14.3355 19.04V16.9775C14.3355 14.9482 12.6855 13.2983 10.6562 13.2983H8.59375C6.56446 13.2983 4.91453 14.9482 4.91453 16.9775V19.04C4.91453 21.0693 6.56446 22.7193 8.59375 22.7193H10.6562Z" stroke="url(#paint1_linear_3222_6798)" stroke-width="1.17093"/>
</g>
</g>
<defs>
<filter id="filter0_d_3222_6798" x="-12" y="-4.99121" width="68" height="54.25" filterUnits="userSpaceOnUse" color-interpolation-filters="sRGB">
<feFlood flood-opacity="0" result="BackgroundImageFix"/>
<feColorMatrix in="SourceAlpha" type="matrix" values="0 0 0 0 0 0 0 0 0 0 0 0 0 0 0 0 0 0 127 0" result="hardAlpha"/>
<feOffset/>
<feGaussianBlur stdDeviation="6"/>
<feComposite in2="hardAlpha" operator="out"/>
<feColorMatrix type="matrix" values="0 0 0 0 0.996078 0 0 0 0 0.376471 0 0 0 0 0.054902 0 0 0 0.3 0"/>
<feBlend mode="normal" in2="BackgroundImageFix" result="effect1_dropShadow_3222_6798"/>
<feBlend mode="normal" in="SourceGraphic" in2="effect1_dropShadow_3222_6798" result="shape"/>
</filter>
<linearGradient id="paint0_linear_3222_6798" x1="80.5538" y1="-22.9267" x2="30.6995" y2="55.5981" gradientUnits="userSpaceOnUse">
<stop stop-color="#FBFF25"/>
<stop offset="1" stop-color="#FF0000"/>
</linearGradient>
<linearGradient id="paint1_linear_3222_6798" x1="22" y1="7.00879" x2="22" y2="37.2588" gradientUnits="userSpaceOnUse">
<stop stop-color="#EE6429"/>
<stop offset="1" stop-color="#FF7020" stop-opacity="0"/>
</linearGradient>
<clipPath id="clip0_3222_6798">
<rect width="44" height="44" fill="white" transform="translate(0 0.133789)"/>
</clipPath>
</defs>
</svg>
