<svg width="43" height="43" viewBox="0 0 43 43" fill="none" xmlns="http://www.w3.org/2000/svg">
<g clip-path="url(#clip0_1322_13443)">
<mask id="path-1-inside-1_1322_13443" fill="white">
<path d="M30.2315 0H12.3255C10.6119 0 9.22852 1.38955 9.22852 3.10012V39.461C9.22852 41.17 10.6119 42.558 12.3255 42.558H30.2315C31.942 42.558 33.3285 41.17 33.3285 39.461V3.10012C33.3285 1.38955 31.942 0 30.2315 0ZM16.8602 1.88271H25.6999C25.9233 1.88271 26.1047 2.21614 26.1047 2.62866C26.1047 3.04119 25.9233 3.37617 25.6999 3.37617H16.8602C16.6353 3.37617 16.457 3.04119 16.457 2.62866C16.457 2.21614 16.6353 1.88271 16.8602 1.88271ZM21.2801 39.4982C20.1898 39.4982 19.3027 38.6111 19.3027 37.5193C19.3027 36.4276 20.1898 35.5436 21.2801 35.5436C22.3672 35.5436 23.2543 36.4276 23.2543 37.5193C23.2543 38.6111 22.3672 39.4982 21.2801 39.4982ZM31.0084 32.7226H11.5501V5.23097H31.0084V32.7226Z"/>
</mask>
<path d="M30.2315 0H12.3255C10.6119 0 9.22852 1.38955 9.22852 3.10012V39.461C9.22852 41.17 10.6119 42.558 12.3255 42.558H30.2315C31.942 42.558 33.3285 41.17 33.3285 39.461V3.10012C33.3285 1.38955 31.942 0 30.2315 0ZM16.8602 1.88271H25.6999C25.9233 1.88271 26.1047 2.21614 26.1047 2.62866C26.1047 3.04119 25.9233 3.37617 25.6999 3.37617H16.8602C16.6353 3.37617 16.457 3.04119 16.457 2.62866C16.457 2.21614 16.6353 1.88271 16.8602 1.88271ZM21.2801 39.4982C20.1898 39.4982 19.3027 38.6111 19.3027 37.5193C19.3027 36.4276 20.1898 35.5436 21.2801 35.5436C22.3672 35.5436 23.2543 36.4276 23.2543 37.5193C23.2543 38.6111 22.3672 39.4982 21.2801 39.4982ZM31.0084 32.7226H11.5501V5.23097H31.0084V32.7226Z" fill="url(#paint0_linear_1322_13443)"/>
<path d="M31.0084 32.7226V43.9726H42.2584V32.7226H31.0084ZM11.5501 32.7226H0.300115V43.9726H11.5501V32.7226ZM11.5501 5.23097V-6.01903H0.300115V5.23097H11.5501ZM31.0084 5.23097H42.2584V-6.01903H31.0084V5.23097ZM30.2315 -11.25H12.3255V11.25H30.2315V-11.25ZM12.3255 -11.25C4.37666 -11.25 -2.02148 -4.80164 -2.02148 3.10012H20.4785C20.4785 7.58073 16.8471 11.25 12.3255 11.25V-11.25ZM-2.02148 3.10012V39.461H20.4785V3.10012H-2.02148ZM-2.02148 39.461C-2.02148 47.3722 4.38765 53.808 12.3255 53.808V31.308C16.8361 31.308 20.4785 34.9678 20.4785 39.461H-2.02148ZM12.3255 53.808H30.2315V31.308H12.3255V53.808ZM30.2315 53.808C38.1589 53.808 44.5785 47.3795 44.5785 39.461H22.0785C22.0785 34.9605 25.7252 31.308 30.2315 31.308V53.808ZM44.5785 39.461V3.10012H22.0785V39.461H44.5785ZM44.5785 3.10012C44.5785 -4.80898 38.1699 -11.25 30.2315 -11.25V11.25C25.7142 11.25 22.0785 7.58808 22.0785 3.10012H44.5785ZM16.8602 13.1327H25.6999V-9.36729H16.8602V13.1327ZM25.6999 13.1327C19.7399 13.1327 16.8469 8.84542 16.1 7.47015C15.1158 5.65793 14.8547 3.92514 14.8547 2.62866H37.3547C37.3547 0.919667 37.0029 -1.18609 35.8721 -3.26816C34.9787 -4.91328 31.8833 -9.36729 25.6999 -9.36729V13.1327ZM14.8547 2.62866C14.8547 1.33259 15.1155 -0.394205 16.0935 -2.20015C16.828 -3.55645 19.7167 -7.87383 25.6999 -7.87383V14.6262C31.9065 14.6262 34.9975 10.1413 35.8786 8.51438C37.0031 6.43781 37.3547 4.33726 37.3547 2.62866H14.8547ZM25.6999 -7.87383H16.8602V14.6262H25.6999V-7.87383ZM16.8602 -7.87383C22.8461 -7.87383 25.7395 -3.55395 26.4846 -2.16718C27.4583 -0.354684 27.707 1.365 27.707 2.62866H5.20696C5.20696 4.30485 5.54477 6.39829 6.66392 8.4814C7.55434 10.1388 10.6494 14.6262 16.8602 14.6262V-7.87383ZM27.707 2.62866C27.707 3.89267 27.4581 5.61836 26.4782 7.43714C25.7207 8.84298 22.8229 13.1327 16.8602 13.1327V-9.36729C10.6726 -9.36729 7.57314 -4.91083 6.6703 -3.23516C5.54497 -1.14653 5.20696 0.952133 5.20696 2.62866H27.707ZM21.2801 28.2482C26.4087 28.2482 30.5527 32.4037 30.5527 37.5193H8.05274C8.05274 44.8186 13.9709 50.7482 21.2801 50.7482V28.2482ZM30.5527 37.5193C30.5527 42.658 26.3858 46.7936 21.2801 46.7936V24.2936C13.9939 24.2936 8.05274 30.1971 8.05274 37.5193H30.5527ZM21.2801 46.7936C16.1597 46.7936 12.0043 42.6465 12.0043 37.5193H34.5043C34.5043 30.2086 28.5746 24.2936 21.2801 24.2936V46.7936ZM12.0043 37.5193C12.0043 32.4152 16.1368 28.2482 21.2801 28.2482V50.7482C28.5976 50.7482 34.5043 44.8071 34.5043 37.5193H12.0043ZM31.0084 21.4726H11.5501V43.9726H31.0084V21.4726ZM22.8001 32.7226V5.23097H0.300115V32.7226H22.8001ZM11.5501 16.481H31.0084V-6.01903H11.5501V16.481ZM19.7584 5.23097V32.7226H42.2584V5.23097H19.7584Z" fill="url(#paint1_linear_1322_13443)" mask="url(#path-1-inside-1_1322_13443)"/>
</g>
<defs>
<linearGradient id="paint0_linear_1322_13443" x1="53.35" y1="-42.1156" x2="-15.7263" y2="0.242928" gradientUnits="userSpaceOnUse">
<stop stop-color="#FBFF25"/>
<stop offset="1" stop-color="#FF0000"/>
</linearGradient>
<linearGradient id="paint1_linear_1322_13443" x1="21.2785" y1="0" x2="21.2785" y2="42.558" gradientUnits="userSpaceOnUse">
<stop stop-color="#EE6429"/>
<stop offset="1" stop-color="#FF7020" stop-opacity="0"/>
</linearGradient>
<clipPath id="clip0_1322_13443">
<rect width="42.558" height="42.558" fill="white"/>
</clipPath>
</defs>
</svg>
