<svg width="44" height="44" viewBox="0 0 44 44" fill="none" xmlns="http://www.w3.org/2000/svg">
<g clip-path="url(#clip0_3105_25117)">
<path d="M43.9963 29.7775C43.9963 24.3175 40.8639 19.4445 36.1726 17.0742C36.0269 27.5432 27.5392 36.0308 17.0703 36.1765C19.4406 40.8678 24.3136 44.0002 29.7736 44.0002C32.3336 44.0002 34.8231 43.3184 37.0105 42.0229L43.9342 43.9381L42.019 37.0144C43.3145 34.827 43.9963 32.3375 43.9963 29.7775Z" fill="url(#paint0_linear_3105_25117)"/>
<path d="M33.6016 16.8008C33.6016 7.53665 26.0649 0 16.8008 0C7.53665 0 0 7.53665 0 16.8008C0 19.82 0.80365 22.7597 2.32971 25.3405L0.0617676 33.5395L8.26108 31.2719C10.8419 32.7979 13.7816 33.6016 16.8008 33.6016C26.0649 33.6016 33.6016 26.0649 33.6016 16.8008ZM14.2227 12.8906H11.6445C11.6445 10.0473 13.9575 7.73438 16.8008 7.73438C19.6441 7.73438 21.957 10.0473 21.957 12.8906C21.957 14.3338 21.3461 15.7209 20.2802 16.6957L18.0898 18.7005V20.7109H15.5117V17.5652L18.5397 14.7937C19.0808 14.2985 19.3789 13.6228 19.3789 12.8906C19.3789 11.469 18.2224 10.3125 16.8008 10.3125C15.3791 10.3125 14.2227 11.469 14.2227 12.8906ZM15.5117 23.2891H18.0898V25.8672H15.5117V23.2891Z" fill="url(#paint1_linear_3105_25117)"/>
</g>
<defs>
<linearGradient id="paint0_linear_3105_25117" x1="66.3655" y1="-9.57182" x2="17.4856" y2="43.3588" gradientUnits="userSpaceOnUse">
<stop stop-color="#FBFF25"/>
<stop offset="1" stop-color="#FF0000"/>
</linearGradient>
<linearGradient id="paint1_linear_3105_25117" x1="61.5167" y1="-33.2522" x2="0.518241" y2="32.8011" gradientUnits="userSpaceOnUse">
<stop stop-color="#FBFF25"/>
<stop offset="1" stop-color="#FF0000"/>
</linearGradient>
<clipPath id="clip0_3105_25117">
<rect width="44" height="44" fill="white"/>
</clipPath>
</defs>
</svg>
