<svg width="46" height="46" viewBox="0 0 46 46" fill="none" xmlns="http://www.w3.org/2000/svg">
<path d="M32.2287 4.78711L28.0312 7.30273L23.8481 4.78711L19.6506 7.30273L15.4675 4.78711L11.27 7.30273L7.0725 4.78711L2.875 7.30273V37.7777C2.875 39.6752 4.41312 41.2134 6.31062 41.2134H26.6685C23.6339 39.0715 21.643 35.5453 21.643 31.5577C21.643 25.04 26.9445 19.7385 33.4621 19.7385C34.4827 19.7385 35.4674 19.8823 36.4119 20.1267V7.30273L32.2287 4.78711ZM18.6688 32.6185H9.85981C9.14537 32.6185 8.56606 32.0392 8.56606 31.3248C8.56606 30.6104 9.14537 30.031 9.85981 30.031H18.6688C19.3832 30.031 19.9626 30.6104 19.9626 31.3248C19.9626 32.0392 19.3832 32.6185 18.6688 32.6185ZM20.7144 25.5662H9.86125C9.14681 25.5662 8.5675 24.9869 8.5675 24.2724C8.5675 23.558 9.14681 22.9787 9.86125 22.9787H20.7144C21.4288 22.9787 22.0081 23.558 22.0081 24.2724C22.0081 24.9869 21.4288 25.5662 20.7144 25.5662ZM29.4328 18.5023H9.85981C9.14537 18.5023 8.56606 17.923 8.56606 17.2085C8.56606 16.4941 9.14537 15.9148 9.85981 15.9148H29.4328C30.1472 15.9148 30.7266 16.4941 30.7266 17.2085C30.7266 17.923 30.1472 18.5023 29.4328 18.5023Z" fill="url(#paint0_linear_3105_25106)"/>
<path d="M33.4598 21.8945C28.1223 21.8945 23.7969 26.2214 23.7969 31.5574C23.7969 36.8934 28.1238 41.2203 33.4598 41.2203C38.7957 41.2203 43.1226 36.8934 43.1226 31.5574C43.1226 26.2214 38.7957 21.8945 33.4598 21.8945ZM34.7492 36.2048V36.4794C34.7492 37.1938 34.1699 37.7732 33.4554 37.7732C32.7583 37.7732 32.1976 37.2183 32.1718 36.5268C31.6931 36.4578 31.2403 36.2465 30.8895 35.9087C30.4352 35.4688 30.1837 34.8795 30.1837 34.247C30.1837 33.5325 30.763 32.9532 31.4774 32.9532C32.0941 32.9532 32.6088 33.383 32.7396 33.9609C33.7429 33.8919 34.5063 33.6274 34.5206 33.327C34.5249 33.3428 34.2777 33.074 33.1665 32.8195C30.8363 32.2905 29.7093 31.2167 29.8186 29.6254C29.8746 28.7945 30.2987 27.5281 32.1631 26.9128V26.6354C32.1631 25.921 32.7424 25.3417 33.4569 25.3417C34.1555 25.3417 34.7147 25.8965 34.7406 26.5894C35.2149 26.6584 35.662 26.8611 36.0156 27.2032C36.4656 27.6373 36.7229 28.2454 36.7229 28.8707C36.7229 29.5852 36.1436 30.1645 35.4291 30.1645C34.8139 30.1645 34.2978 29.7347 34.167 29.1582C33.1205 29.2272 32.4219 29.4773 32.4003 29.8022C32.3974 29.7878 32.5872 30.0351 33.7401 30.2967C36.5748 30.9422 37.1354 32.3337 37.1081 33.3888C37.088 34.0932 36.7804 35.535 34.7492 36.2048Z" fill="url(#paint1_linear_3105_25106)"/>
<defs>
<linearGradient id="paint0_linear_3105_25106" x1="64.2733" y1="-31.2604" x2="-2.06235" y2="34.8745" gradientUnits="userSpaceOnUse">
<stop stop-color="#FBFF25"/>
<stop offset="1" stop-color="#FF0000"/>
</linearGradient>
<linearGradient id="paint1_linear_3105_25106" x1="59.1779" y1="2.7697" x2="24.0949" y2="40.7599" gradientUnits="userSpaceOnUse">
<stop stop-color="#FBFF25"/>
<stop offset="1" stop-color="#FF0000"/>
</linearGradient>
</defs>
</svg>
