<svg width="70" height="71" viewBox="0 0 70 71" fill="none" xmlns="http://www.w3.org/2000/svg">
<g id="question (1) 1" clip-path="url(#clip0_2715_23031)">
<g id="Group">
<g id="Group_2">
<path id="Vector" d="M35 0.133789C15.776 0.133789 0 15.9098 0 35.1338C0 54.3578 15.776 70.1338 35 70.1338C54.224 70.1338 70 54.3578 70 35.1338C70 15.9098 54.224 0.133789 35 0.133789ZM35 57.6924C32.7389 57.6924 30.8984 55.8519 30.8984 53.5908C30.8984 51.3298 32.7389 49.4893 35 49.4893C37.2611 49.4893 39.1016 51.3298 39.1016 53.5908C39.1016 55.8519 37.2611 57.6924 35 57.6924ZM42.2678 34.8054C40.2251 36.3074 39.1016 38.226 39.1016 40.2066V45.3877H30.8984V40.2066C30.8984 35.6104 33.2737 31.2305 37.4153 28.1923C38.4867 27.4073 39.1016 26.1996 39.1016 24.8799C39.1016 22.6188 37.2611 20.7783 35 20.7783C32.7389 20.7783 30.8984 22.6188 30.8984 24.8799H22.6953C22.6953 18.0947 28.2148 12.5752 35 12.5752C41.7852 12.5752 47.3047 18.0947 47.3047 24.8799C47.3047 28.7812 45.4221 32.4922 42.2678 34.8054Z" fill="url(#paint0_linear_2715_23031)"/>
</g>
</g>
</g>
<defs>
<linearGradient id="paint0_linear_2715_23031" x1="128.154" y1="-69.1385" x2="1.07962" y2="68.4663" gradientUnits="userSpaceOnUse">
<stop stop-color="#FBFF25"/>
<stop offset="1" stop-color="#FF0000"/>
</linearGradient>
<clipPath id="clip0_2715_23031">
<rect width="70" height="70" fill="white" transform="translate(0 0.133789)"/>
</clipPath>
</defs>
</svg>
