<svg width="180" height="62" viewBox="0 0 180 62" fill="none" xmlns="http://www.w3.org/2000/svg">
<path d="M74.8215 39.4034C74.8215 39.0383 74.5781 38.7949 74.0914 38.6733V38.4299C74.3348 38.4299 75.2474 38.4907 75.4908 38.4907C75.6733 38.4907 76.586 38.4299 76.8294 38.4299V38.6733C76.4034 38.795 76.1601 39.0383 76.1601 39.4034V43.9668C76.1601 45.4271 76.951 46.218 78.5938 46.218C80.0541 46.218 81.1493 45.5487 81.1493 44.0276V39.3425C81.1493 38.9775 80.9059 38.7341 80.4191 38.6124V38.4299C80.6017 38.4299 81.3318 38.4907 81.5752 38.4907C81.8185 38.4907 82.5487 38.4299 82.7312 38.4299V38.6733C82.1836 38.795 82.0011 39.0383 82.0011 39.4034V43.8451C82.0011 45.8529 80.8451 47.0091 78.3504 47.0091C76.0383 47.0091 74.8213 45.9747 74.8213 44.0885L74.8215 39.4034ZM84.7999 46.6437C85.3475 46.522 85.53 46.2786 85.53 45.9136V39.586C85.53 39.0383 85.2257 38.795 84.739 38.6733V38.4299H86.5035L91.9796 44.8792V39.4032C91.9796 39.0381 91.7362 38.7947 91.2494 38.673V38.4297C91.432 38.4297 92.1621 38.4905 92.4055 38.4905C92.6488 38.4905 93.379 38.4297 93.5615 38.4297V38.673C93.0139 38.7947 92.7705 39.0381 92.7705 39.4032V47.0085H92.4663C92.2837 46.9477 91.8578 46.7652 91.2494 46.0959L86.3209 40.3764V45.9742C86.3209 46.3393 86.5035 46.5827 87.051 46.7043V46.9477C86.8685 46.9477 86.1384 46.8869 85.895 46.8869C85.6516 46.8869 84.9215 46.9477 84.739 46.9477L84.7999 46.6437ZM128.121 44.9401H128.364C128.486 45.4268 128.729 45.8527 129.155 46.0961C129.52 46.4003 130.189 46.522 130.676 46.522C131.771 46.522 132.501 45.9744 132.501 45.1226C132.501 44.2099 131.589 43.784 130.554 43.2364C129.763 42.8105 128.181 42.2021 128.181 40.681C128.181 39.2816 129.277 38.3689 130.98 38.3689C132.136 38.3689 132.623 38.6732 133.414 38.6123V40.3159H133.171C132.866 39.2816 131.954 38.9774 130.919 38.9774C129.763 38.9774 129.398 39.6467 129.398 40.2551C129.398 41.1678 130.311 41.6545 131.345 42.1413C132.501 42.628 133.779 43.2973 133.779 44.7575C133.779 46.157 132.684 47.1305 130.737 47.1305C129.581 47.1305 128.851 46.7654 128.242 46.7045L128.121 44.9401ZM151.667 43.3581L149.416 39.7682C149.051 39.1598 148.747 38.7947 148.321 38.673V38.4297C148.625 38.4297 149.477 38.4905 149.659 38.4905C149.903 38.4905 150.754 38.4297 151.119 38.4297V38.673C150.815 38.7339 150.694 38.8556 150.694 39.099C150.694 39.2815 150.815 39.5249 150.937 39.7683C151.059 39.9508 152.58 42.5062 152.58 42.5062L154.162 39.7683C154.344 39.464 154.405 39.2206 154.405 39.0381C154.405 38.8556 154.283 38.7339 154.04 38.7339V38.4297C154.283 38.4297 154.892 38.4905 155.074 38.4905C155.257 38.4905 155.926 38.4297 156.169 38.4297V38.6731C155.561 38.9164 155.196 39.464 154.831 40.0725L152.823 43.4798M152.945 43.0539V45.9136C152.945 46.2178 153.188 46.5829 153.675 46.6437V46.8871C153.432 46.8871 152.519 46.8262 152.275 46.8262C152.032 46.8262 151.18 46.8871 150.876 46.8871V46.6437C151.363 46.522 151.606 46.2178 151.606 45.9136V43.1756M110.173 38.4296H115.405C115.588 38.4296 115.831 38.4296 116.014 38.308H116.257L116.196 40.0116H115.953C115.77 39.464 115.527 39.0381 114.554 39.0381H112.302V42.0804H114.067C114.31 42.0804 114.614 42.0804 114.736 42.0195C115.101 41.9587 115.284 41.7153 115.405 41.3502H115.649V43.4798H115.405C115.284 43.1147 115.162 42.8713 114.736 42.8105C114.614 42.7496 114.31 42.7496 114.067 42.7496H112.302V46.2178H114.797C115.892 46.2178 116.196 45.7919 116.44 45.1226H116.683L116.44 46.8871C115.649 46.8263 115.162 46.8263 114.249 46.8263H111.633C111.39 46.8263 110.477 46.8871 110.173 46.8871V46.6437C110.66 46.5221 110.903 46.3395 110.903 45.8528V39.4035C110.903 38.9775 110.66 38.7342 110.173 38.6733L110.173 38.4296ZM96.787 39.464C96.787 39.0381 96.5436 38.7947 96.0568 38.673V38.4297C96.3611 38.4297 97.2129 38.4905 97.5171 38.4905C97.7605 38.4905 98.6731 38.4297 98.9773 38.4297V38.673C98.4906 38.7947 98.1864 38.9773 98.1864 39.464V45.8525C98.1864 46.2784 98.4298 46.5218 98.9773 46.6434V46.8868C98.6731 46.8868 97.8213 46.826 97.5171 46.826C97.2737 46.826 96.3611 46.8868 96.0568 46.8868V46.6434C96.6044 46.5217 96.8478 46.3392 96.8478 45.8525L96.787 39.464ZM136.519 39.464C136.519 39.0381 136.275 38.7947 135.789 38.673V38.4297C136.093 38.4297 137.005 38.4905 137.249 38.4905C137.492 38.4905 138.405 38.4297 138.709 38.4297V38.673C138.222 38.7947 137.979 38.9773 137.979 39.464V45.8525C137.979 46.2784 138.222 46.5218 138.709 46.6434V46.8868C138.405 46.8868 137.553 46.826 137.249 46.826C137.005 46.826 136.093 46.8868 135.789 46.8868V46.6434C136.336 46.5217 136.519 46.3392 136.519 45.8525V39.464ZM143.82 38.4905C140.96 38.4905 140.473 38.4297 139.926 38.3688V40.0724H140.169C140.412 39.2815 140.838 39.0989 141.386 39.0989H143.211V45.7917C143.211 46.2176 142.968 46.4609 142.42 46.5826V46.826C142.725 46.826 143.637 46.7652 143.881 46.7652C144.124 46.7652 145.037 46.826 145.341 46.826V46.5826C144.854 46.4609 144.55 46.2175 144.55 45.7917V39.0989H146.314C146.862 39.0989 147.288 39.2815 147.531 40.0724H147.775V38.3688C147.105 38.4297 146.68 38.4905 143.82 38.4905ZM120.882 45.8525C120.882 46.2784 121.125 46.5218 121.673 46.6435V46.8868C121.368 46.8868 120.456 46.826 120.212 46.826C119.969 46.826 119.117 46.8868 118.813 46.8868V46.6435C119.3 46.5218 119.543 46.3392 119.543 45.8525V39.4032C119.543 38.9773 119.3 38.7339 118.813 38.6731V38.4297C119.117 38.4297 119.969 38.4905 120.212 38.4905C120.638 38.4905 121.794 38.4297 122.281 38.4297C124.289 38.4297 125.384 39.2815 125.384 40.6809C125.384 41.7761 124.532 42.5671 123.255 42.8713C123.255 42.8713 123.559 43.0538 123.863 43.358C124.228 43.784 125.202 45.1225 125.567 45.6093C125.932 46.096 126.479 46.6436 127.027 46.6436V46.8261C126.784 46.887 126.358 46.9478 126.054 46.9478C125.384 46.9478 124.837 46.7045 124.289 46.096C123.802 45.5484 123.072 44.3924 122.585 43.784C122.281 43.4189 121.916 43.1147 121.308 42.993C121.186 42.993 121.064 42.9322 120.943 42.9322L120.882 45.8525ZM120.882 42.4452C121.125 42.506 121.551 42.506 121.916 42.506C123.498 42.506 123.985 41.5933 123.985 40.8024C123.985 39.6463 123.255 38.9771 121.855 38.9771C121.551 38.9771 121.186 39.0379 120.882 39.0987V42.4452ZM100.925 39.4637C100.743 39.0378 100.438 38.7336 99.9515 38.6728V38.4294C100.256 38.4294 101.29 38.4902 101.533 38.4902C101.716 38.4902 102.629 38.4294 102.933 38.4294V38.6728C102.69 38.7336 102.324 38.8553 102.324 39.1595C102.324 39.3421 102.446 39.6463 102.69 40.133L104.88 45.0615L106.949 40.133C107.131 39.7071 107.253 39.4029 107.253 39.2204C107.253 38.977 107.009 38.7945 106.644 38.7336V38.4294C106.888 38.4294 107.557 38.4902 107.8 38.4902C107.983 38.4902 108.774 38.4294 109.078 38.4294V38.6728C108.591 38.7944 108.226 39.0987 107.983 39.768L104.941 46.8866H104.271L100.925 39.4637ZM108.713 17.0123C108.348 16.2214 107.8 15.6738 106.948 15.4912V15.0653C107.496 15.0653 109.382 15.1262 109.808 15.1262C110.173 15.1262 111.999 15.0653 112.607 15.0653V15.4912C112.12 15.6129 111.512 15.8563 111.512 16.4039C111.512 16.769 111.755 17.3165 112.181 18.2292L116.319 27.5991L120.213 18.2292C120.517 17.4991 120.76 16.8906 120.76 16.4647C120.76 15.9779 120.273 15.6129 119.665 15.4912V15.0653C120.213 15.0653 121.43 15.1261 121.855 15.1261C122.221 15.1261 123.681 15.0653 124.289 15.0653V15.4912C123.316 15.7346 122.707 16.343 122.16 17.5599L116.44 31.0673H115.162L108.713 17.0123ZM53.3438 30.5197C54.0739 30.3372 54.6215 30.033 54.6215 29.1812V16.8298C54.6215 16.0389 54.1347 15.6738 53.3438 15.4913V15.0045C53.7088 15.0045 55.4124 15.0653 55.8383 15.0653C56.3251 15.0653 58.0896 15.0045 58.4546 15.0045V15.4304C57.7245 15.6129 57.1769 15.9172 57.1769 16.769V22.0017H66.4251V16.8298C66.4251 15.978 65.9383 15.613 65.1474 15.4913V15.0045C65.5125 15.0045 67.2769 15.0653 67.7637 15.0653C68.1896 15.0653 69.8932 15.0045 70.3191 15.0045V15.4304C69.589 15.6129 69.0414 15.9172 69.0414 16.769V29.1203C69.0414 29.9113 69.5282 30.2764 70.3191 30.4589V30.8848C69.954 30.8848 68.1896 30.824 67.7637 30.824C67.2769 30.824 65.5733 30.8848 65.1474 30.8848V30.5197C65.8775 30.3372 66.4251 30.033 66.4251 29.1812V23.34H57.1769V29.1812C57.1769 30.033 57.6637 30.3372 58.4546 30.5197V30.9457C58.0896 30.9457 56.2643 30.8848 55.8383 30.8848C55.4124 30.8848 53.7697 30.9457 53.3438 30.9457V30.5197ZM159.943 30.5197C160.917 30.3372 161.404 29.9721 161.404 29.1203V16.8298C161.404 15.978 160.856 15.613 159.943 15.4913V15.0045C160.491 15.0045 162.195 15.0653 162.681 15.0653C163.472 15.0653 165.602 14.8828 167.306 14.8828C172.964 14.8828 176.432 18.0468 176.432 22.8533C176.432 27.5384 172.842 31.0063 167.001 31.0063C165.298 31.0063 163.351 30.8846 162.56 30.8846C162.073 30.8846 160.491 30.9454 159.943 30.9454V30.5197ZM163.959 29.7288C164.568 29.8505 165.602 29.9113 166.454 29.9113C171.2 29.9113 173.694 27.0516 173.694 23.0361C173.694 18.8986 171.078 15.9783 166.636 15.9783C165.724 15.9783 164.568 16.0391 163.959 16.1608V29.7288ZM95.7538 29.0595C95.7538 29.8505 96.3014 30.3372 97.214 30.5198V30.9457C96.6664 30.9457 94.9628 30.8848 94.4152 30.8848C93.9893 30.8848 92.2857 30.9457 91.7381 30.9457V30.5198C92.6507 30.3372 93.1375 29.9113 93.1375 29.0595V16.8907C93.1375 16.1606 92.7116 15.6738 91.7381 15.4913V15.0045C92.2857 15.0045 93.9285 15.0654 94.4152 15.0654C95.2062 15.0654 97.3966 14.9437 98.3093 14.9437C102.143 14.9437 104.272 16.5256 104.272 19.2029C104.272 21.3324 102.69 22.7319 100.256 23.3404C100.256 23.3404 100.804 23.6446 101.352 24.3139C102.021 25.1048 103.907 27.782 104.637 28.6947C105.367 29.6074 106.341 30.6417 107.375 30.6417V31.0068C106.888 31.1285 106.097 31.1893 105.489 31.1893C104.211 31.1893 103.177 30.7026 102.143 29.4857C101.291 28.4513 99.7696 26.2 98.9177 25.1048C98.3701 24.3747 97.7009 23.8271 96.484 23.6446C96.2406 23.5837 95.9972 23.5837 95.7539 23.5229L95.7538 29.0595ZM95.7538 22.6102C96.2405 22.671 97.0315 22.7319 97.7616 22.7319C100.743 22.7319 101.656 21.0282 101.656 19.5071C101.656 17.3775 100.195 16.0389 97.6399 16.0389C97.0923 16.0389 96.3014 16.0997 95.7538 16.2214V22.6102ZM146.011 29.0595C146.011 29.8505 146.559 30.3372 147.472 30.5198V30.9457C146.924 30.9457 145.22 30.8848 144.734 30.8848C144.308 30.8848 142.604 30.9457 142.057 30.9457V30.5198C142.969 30.3372 143.456 29.9113 143.456 29.0595V16.8907C143.456 16.1606 143.03 15.6738 142.057 15.4913V15.0045C142.604 15.0045 144.247 15.0654 144.734 15.0654C145.525 15.0654 147.715 14.9437 148.567 14.9437C152.4 14.9437 154.53 16.5256 154.53 19.2029C154.53 21.3324 152.948 22.7319 150.514 23.3404C150.514 23.3404 151.062 23.6446 151.609 24.3139C152.278 25.1048 154.165 27.782 154.895 28.6947C155.625 29.6074 156.598 30.6417 157.633 30.6417V31.0068C157.146 31.1285 156.355 31.1893 155.747 31.1893C154.469 31.1893 153.435 30.7026 152.4 29.4857C151.548 28.4513 150.027 26.2 149.175 25.1048C148.628 24.3747 147.958 23.8271 146.742 23.6446C146.498 23.5837 146.255 23.5837 146.011 23.5229L146.011 29.0595ZM146.011 22.6102C146.498 22.671 147.289 22.7319 148.019 22.7319C151.001 22.7319 151.913 21.0282 151.913 19.5071C151.913 17.3775 150.453 16.0389 147.898 16.0389C147.35 16.0389 146.559 16.0997 146.011 16.2214V22.6102ZM72.6326 30.5198C73.6669 30.2764 74.2145 29.6071 74.5796 28.7553L79.6906 16.4648C79.934 15.9781 80.1773 14.9437 80.1773 14.9437H81.6376C81.6376 14.9437 81.881 15.9781 82.1244 16.5257L87.5396 28.8162C87.9047 29.668 88.3305 30.2764 89.4257 30.5198V30.9457C88.8173 30.9457 87.0528 30.8849 86.6269 30.8849C86.201 30.8849 84.4974 30.9457 83.8889 30.9457V30.5198C84.6799 30.3373 84.9233 29.9113 84.9233 29.5463C84.9233 29.2421 84.8016 28.8162 84.619 28.4511L83.463 25.8348H77.5002L76.4658 28.512C76.3441 28.8162 76.2225 29.2421 76.2225 29.5463C76.2225 29.9722 76.4658 30.3373 77.3176 30.5806V31.0066C76.77 31.0066 75.3707 30.9457 75.0664 30.9457L72.7544 31.0066L72.6326 30.5198ZM82.7935 24.5569L80.238 18.6549L77.8651 24.5569H82.7935ZM123.254 30.5198C124.288 30.2764 124.836 29.6071 125.201 28.7553L130.312 16.4648C130.555 15.9781 130.799 14.9437 130.799 14.9437H132.259C132.259 14.9437 132.502 15.9781 132.746 16.5257L138.161 28.8162C138.526 29.668 138.952 30.2764 140.047 30.5198V30.9457C139.439 30.9457 137.674 30.8849 137.248 30.8849C136.822 30.8849 135.119 30.9457 134.51 30.9457V30.5198C135.301 30.3373 135.545 29.9113 135.545 29.5463C135.545 29.2421 135.423 28.8162 135.241 28.4511L134.085 25.8348H128.122L127.087 28.512C126.966 28.8162 126.844 29.2421 126.844 29.5463C126.844 29.9722 127.087 30.3373 127.939 30.5806V31.0066C127.392 31.0066 125.992 30.9457 125.688 30.9457L123.376 31.0066V30.5198H123.254ZM133.354 24.5569L130.799 18.6549L128.426 24.5569H133.354Z" fill="white"/>
<path d="M6.18057 10.0781H41.7736V23.5247C41.7736 29.6698 39.4615 42.7513 24.1287 52.4865C24.1287 52.4865 7.45744 45.5504 6.17969 23.5247L6.18057 10.0781Z" fill="#A51C30"/>
<path d="M17.8802 31.2914C17.7909 31.2877 17.7134 31.3323 17.6509 31.3864C17.5292 31.4919 17.4563 31.6378 17.4524 31.6455C17.3167 31.8356 17.0309 31.8834 16.7715 31.876C16.5121 31.8686 16.289 31.8095 16.289 31.8095L16.2748 31.8058L16.2605 31.8107C15.8876 31.935 15.7215 32.0936 15.6533 32.2302C15.6191 32.2985 15.6105 32.3602 15.6105 32.4049C15.6105 32.4399 15.6149 32.4554 15.6176 32.4655V33.8594C15.604 33.9363 15.5684 33.9833 15.519 34.0163C15.4688 34.0498 15.402 34.0675 15.3348 34.0745C15.2004 34.0886 15.0698 34.0603 15.0698 34.0603H15.0686C14.6007 33.9667 14.2799 34.0764 14.0799 34.2124C13.8831 34.3462 13.8044 34.5019 13.8018 34.5071C13.6016 34.778 13.734 35.1583 13.734 35.1583V35.1607C13.747 35.1953 13.762 35.228 13.7792 35.2581C13.7794 35.2587 13.7816 35.2652 13.7816 35.2652C13.9641 35.752 14.6336 35.7513 14.6336 35.7513C14.877 35.9338 15.3027 35.8119 15.3027 35.8119C15.4277 35.8119 15.5004 35.8638 15.5451 35.9295C15.5673 36.0192 15.557 36.109 15.557 36.109L15.5558 36.1197L15.5581 36.1292C15.5622 36.1454 15.5707 36.2298 15.5748 36.3454C15.5789 36.4611 15.5805 36.6133 15.5819 36.7899C15.5848 37.143 15.5833 37.5919 15.5795 38.0329C15.5719 38.9148 15.5569 39.7667 15.5569 39.7667C15.5569 40.0643 15.4987 40.2385 15.4987 40.2385L15.4963 40.2456V40.2539C15.4963 40.2687 15.4915 40.2763 15.4749 40.2895C15.4584 40.3027 15.4294 40.3172 15.3906 40.3275C15.313 40.3482 15.2018 40.3561 15.0899 40.3561C14.8662 40.3561 14.6396 40.3264 14.6396 40.3264L14.6336 40.3252L14.6276 40.3264C13.994 40.3898 13.7979 40.9585 13.7958 40.9645V40.9657C13.7456 41.0838 13.75 41.2035 13.7839 41.3115C13.8009 41.3657 13.8257 41.4175 13.854 41.466C13.9671 41.7422 14.2688 41.958 14.2688 41.958C14.2688 42.0797 15.425 42.1398 15.425 42.1398C15.4951 42.1573 15.5428 42.2066 15.5783 42.2658C15.5819 42.2766 15.5861 42.2869 15.589 42.2978C15.6175 42.4044 15.6175 42.5046 15.6175 42.5046C15.6089 42.5371 15.6056 42.5735 15.6033 42.6258C15.6007 42.6849 15.5994 42.7578 15.6009 42.8397C15.6038 43.0035 15.6132 43.2039 15.6247 43.3983C15.6475 43.7869 15.6781 44.1517 15.6781 44.1517L15.6793 44.154V44.1564C15.6858 44.1952 15.7047 44.2287 15.7281 44.2586C15.7281 44.2587 15.7293 44.2693 15.7293 44.2693C15.7901 44.6344 16.9462 44.5129 16.9462 44.5129C16.9462 44.5129 20.9981 44.4194 22.093 44.4369C22.2494 44.4392 22.3452 44.4447 22.3604 44.4523C22.4821 44.4523 22.787 44.3917 22.787 44.3917L23.2124 44.6959C23.3836 44.829 23.5608 44.867 23.7234 44.8564C23.7559 44.8546 23.7885 44.8502 23.8197 44.8445C24.1316 44.788 24.3687 44.5736 24.3687 44.5736L24.9771 44.4523C25.0988 44.4523 30.0276 44.3917 30.0276 44.3917C30.4535 44.5134 30.636 44.3299 30.636 44.3299L31.4263 44.2693C31.4567 44.2693 31.4851 44.267 31.5119 44.2622C31.7052 44.2268 31.8046 44.0722 31.8565 43.9212C31.8719 43.8912 31.8882 43.8613 31.8993 43.8309C31.9637 43.6535 31.9622 43.4791 31.9622 43.4791V42.45C31.9724 42.3686 31.9912 42.305 32.0121 42.248C32.123 42.0524 32.2783 42.0186 32.2783 42.0186L33.008 41.8962L33.374 41.7144C33.5144 41.6793 33.5884 41.5811 33.6307 41.4625C33.6415 41.4456 33.653 41.4295 33.6616 41.4114C33.712 41.3042 33.7269 41.1793 33.7269 41.0608C33.7269 40.8238 33.664 40.6057 33.664 40.6057L33.6628 40.6008L33.6616 40.5959C33.5284 40.3295 33.2211 40.2209 32.9557 40.1741C32.6903 40.1272 32.4566 40.1432 32.4566 40.1432H32.4554C32.1625 40.1725 32.052 40.0886 32.0015 40.0065C31.9509 39.9244 31.9623 39.8354 31.9623 39.8354V39.8317L32.024 36.0611C32.0481 35.9197 32.0891 35.8072 32.1298 35.7153C32.1774 35.6243 32.2177 35.5691 32.2177 35.5691C32.4003 35.6299 33.008 35.4467 33.008 35.4467C33.3577 35.4117 33.5033 35.1973 33.5665 35.0201C33.5721 35.0097 33.5807 34.9994 33.5856 34.9892C33.6657 34.8208 33.6652 34.6657 33.6652 34.6612C33.6977 34.4226 33.5317 34.2254 33.3669 34.092C33.2014 33.958 33.0282 33.8804 33.0282 33.8804L33.0187 33.8756H32.1643C32.1406 33.8707 32.1214 33.8582 32.1013 33.8316C32.0808 33.8044 32.0612 33.7642 32.0466 33.7151C32.0175 33.617 32.004 33.4846 32.0003 33.3539C31.9928 33.0924 32.0229 32.8369 32.0229 32.8369L32.024 32.8333V32.344C32.024 32.1073 31.855 31.9411 31.6961 31.8378C31.5371 31.7344 31.38 31.6881 31.38 31.6881L31.3728 31.6857H30.2879C30.2633 31.6451 30.236 31.6052 30.1952 31.5788C30.1412 31.5438 30.0788 31.5178 30.0193 31.4979C29.9002 31.4582 29.7899 31.4433 29.7899 31.4433C29.5916 31.381 29.2968 31.3815 29.2968 31.3815H29.2813L29.2682 31.3899C28.8894 31.6521 28.2248 31.762 27.658 31.7998C27.0912 31.8376 26.623 31.8082 26.623 31.8082L24.7144 31.6846L24.6978 31.7001C24.7034 31.6946 24.6913 31.7043 24.6717 31.7108C24.652 31.7174 24.6238 31.7253 24.592 31.7322C24.5286 31.746 24.4478 31.7589 24.3686 31.7702C24.2102 31.7929 24.0585 31.8083 24.0585 31.8083L24.0276 31.8106L24.0169 31.8415C23.9644 31.9988 23.8053 32.053 23.8053 32.053L23.6378 32.11C23.5266 32.0156 23.3532 31.9439 23.1886 31.8938C23.0149 31.8409 22.8707 31.8119 22.8642 31.8106C22.863 31.81 22.8617 31.8088 22.8606 31.8082C22.8548 31.8059 22.849 31.8046 22.8439 31.8034C22.8339 31.801 22.8243 31.7997 22.8119 31.7985C22.787 31.7961 22.755 31.7954 22.7156 31.7948C22.6368 31.7942 22.5292 31.7966 22.4019 31.8009C22.1473 31.8095 21.8143 31.8259 21.4833 31.8449C20.8218 31.8829 20.169 31.9292 20.1678 31.9293C19.4134 31.9595 18.904 31.8384 18.5837 31.7118C18.2634 31.5852 18.1369 31.4575 18.1369 31.4575C18.0566 31.3478 17.9678 31.2949 17.8802 31.2914ZM17.8767 31.3912C17.9299 31.3935 17.9915 31.4232 18.062 31.5219L18.0632 31.5243L18.0656 31.5279C18.0656 31.5279 18.2131 31.6728 18.5469 31.8048C18.8807 31.9368 19.4046 32.0601 20.1714 32.0294H20.175C20.175 32.0294 20.828 31.983 21.4893 31.945C21.8199 31.926 22.1525 31.9096 22.4055 31.901C22.5321 31.8968 22.6398 31.8944 22.7157 31.8949C22.7537 31.8952 22.7835 31.8967 22.8036 31.8986C22.8121 31.8992 22.8175 31.9003 22.8215 31.9009L22.8239 31.9033L22.8381 31.9069C22.8381 31.9069 22.9891 31.9365 23.1614 31.9889C23.3336 32.0414 23.529 32.1213 23.6046 32.1969L23.626 32.2183L23.8375 32.1482C23.8375 32.1482 23.9674 32.0721 24.055 31.9402C23.9873 32.1049 23.8209 32.1613 23.8209 32.1613L23.6391 32.2837C23.4566 32.1011 22.8476 31.9795 22.8476 31.9795C22.7868 31.9186 20.1703 32.1007 20.1703 32.1007C18.6492 32.1615 18.1013 31.6146 18.1013 31.6146C17.7971 31.1887 17.4929 31.7965 17.4929 31.7965C17.1887 32.2224 16.276 31.9795 16.276 31.9795C15.9393 32.0917 15.7885 32.2292 15.7187 32.3455C15.7234 32.3243 15.7307 32.3012 15.7436 32.2754C15.7964 32.1698 15.9386 32.0276 16.2867 31.9094C16.3062 31.9142 16.5096 31.9684 16.7704 31.9759C17.0433 31.9837 17.366 31.9396 17.5345 31.7038L17.5369 31.7014L17.5392 31.6978C17.5392 31.6978 17.6131 31.5508 17.7163 31.4613C17.7679 31.4166 17.8234 31.389 17.8767 31.3912ZM29.3112 31.4827C29.3328 31.4829 29.6083 31.4863 29.7687 31.5397L29.7734 31.5409L29.777 31.542C29.777 31.542 29.8807 31.5568 29.9897 31.5932C30.0442 31.6113 30.1 31.6342 30.143 31.6621C30.1499 31.6663 30.1535 31.6717 30.1596 31.6763C30.0135 31.5864 29.7841 31.5527 29.7841 31.5527C29.6016 31.4919 29.2969 31.4921 29.2969 31.4921C28.5059 32.0397 26.6195 31.9187 26.6195 31.9187L24.7336 31.7963C24.6735 31.8565 24.0854 31.9162 24.0717 31.9176C24.0743 31.9133 24.0776 31.9101 24.08 31.9057C24.0889 31.9051 24.2281 31.8911 24.3843 31.8688C24.4648 31.8573 24.5471 31.8443 24.6148 31.8296C24.6486 31.8223 24.6787 31.8143 24.7039 31.8059C24.7181 31.801 24.7289 31.7929 24.7408 31.7869L26.6172 31.9069C26.6172 31.9069 27.0925 31.938 27.6665 31.8998C28.2338 31.8619 28.8978 31.7605 29.3112 31.4827ZM30.2642 31.7857H31.3575C31.361 31.7869 31.4479 31.8202 31.5488 31.8725C31.4468 31.8215 31.3658 31.7964 31.3658 31.7964H30.2702C30.269 31.7928 30.2658 31.7894 30.2642 31.7857ZM31.569 31.8831C31.5951 31.8973 31.6166 31.9046 31.6439 31.9223C31.6514 31.9272 31.6579 31.9339 31.6653 31.9389C31.6325 31.9178 31.6002 31.8994 31.569 31.8831ZM32.0028 33.857C32.0096 33.8685 32.0151 33.8811 32.023 33.8914C32.0541 33.9325 32.0961 33.9643 32.1478 33.9746L32.1525 33.9758H32.9962C33.0034 33.9788 33.1548 34.049 33.3052 34.1707C33.4106 34.256 33.5033 34.3629 33.5452 34.4809C33.4363 34.3058 33.2354 34.1716 33.1127 34.1018C33.0509 34.0666 33.0081 34.0483 33.0081 34.0483H32.1572C32.0827 34.0334 32.0342 33.9592 32.0028 33.857ZM15.6381 34.0424C15.4851 34.3319 15.0593 34.2302 15.0593 34.2302C14.1467 34.0476 13.8424 34.6568 13.8424 34.6568C13.8341 34.6679 13.8293 34.6797 13.8222 34.6912C13.8361 34.6465 13.8548 34.6031 13.884 34.5641L13.8888 34.5568C13.8888 34.5568 13.9581 34.4167 14.1384 34.2941C14.3183 34.1718 14.606 34.0691 15.0498 34.1575C15.0498 34.1575 15.1923 34.1892 15.3469 34.1729C15.4242 34.1648 15.5066 34.1457 15.5763 34.0993C15.5993 34.0839 15.6192 34.0641 15.6381 34.0424ZM31.9246 40.0661C31.9981 40.1781 32.1583 40.2734 32.4653 40.2432C32.4653 40.2432 32.6889 40.2284 32.9407 40.2729C33.1919 40.3172 33.461 40.4207 33.5717 40.6401C33.572 40.6412 33.5786 40.6718 33.5812 40.6817C33.2958 40.2601 32.4617 40.3145 32.4617 40.3145C32.064 40.3543 31.9543 40.1874 31.9246 40.0661ZM15.5525 40.3525C15.5517 40.3555 15.5466 40.3751 15.5466 40.3751C15.5466 40.4055 15.5323 40.4312 15.5073 40.4511C15.4824 40.4711 15.4467 40.486 15.404 40.4975C15.1473 40.5659 14.6339 40.4975 14.6339 40.4975C14.1935 40.5415 13.9776 40.8383 13.8912 41.0002C13.8912 41.0002 14.0604 40.4852 14.6387 40.4262C14.6489 40.4273 14.8642 40.4559 15.0914 40.4559C15.2077 40.4559 15.3235 40.4488 15.417 40.4238C15.4638 40.4113 15.506 40.3946 15.5394 40.3679C15.5446 40.3637 15.5479 40.3574 15.5525 40.3525ZM19.7914 14.4023L19.7736 14.4178C18.8241 15.1893 17.4444 14.8337 17.4444 14.8337L17.4384 14.8326H17.4325C16.0924 14.8326 15.6607 14.8932 15.6607 14.8932L15.6416 14.8968L15.6298 14.911C15.4913 15.0772 15.3215 15.0749 15.1722 15.0322C15.0265 14.9906 14.9161 14.909 14.9108 14.9051C14.8834 14.865 14.8396 14.8423 14.792 14.8255C14.7381 14.8064 14.6763 14.7953 14.6173 14.7874C14.4992 14.7717 14.3903 14.7708 14.3903 14.7708H14.3879L14.3867 14.772C13.0514 14.863 12.2188 14.7866 11.7224 14.6888C11.4742 14.64 11.3103 14.5852 11.2091 14.5438C11.1078 14.5024 11.0724 14.4761 11.0724 14.4761L11.0784 14.4822C11.059 14.4628 11.0404 14.4558 11.0178 14.4489C10.9951 14.442 10.969 14.4368 10.9405 14.4323C10.8835 14.4233 10.8159 14.4183 10.7504 14.4145C10.6193 14.4065 10.4961 14.4061 10.4961 14.4061H10.4652L10.4509 14.4334C10.398 14.5392 10.2339 14.7613 10.2216 14.778C10.2142 14.7804 10.1978 14.7853 10.1681 14.7887C10.1338 14.7924 10.089 14.7957 10.0386 14.7971C9.93763 14.8001 9.81269 14.7983 9.69156 14.7947C9.44929 14.7872 9.22217 14.7721 9.22217 14.7721L9.21979 14.771H9.21858C8.96482 14.771 8.81207 14.8531 8.72662 14.9385C8.64116 15.024 8.62205 15.1156 8.62205 15.1156L8.62084 15.1192L8.56023 16.2827V16.2863C8.59033 16.6475 8.55389 16.7936 8.52934 16.8329C8.51706 16.8526 8.51677 16.8484 8.51627 16.8484L8.47468 16.8211L8.44616 16.8627C8.43028 16.8865 8.36965 16.9187 8.28336 16.9376C8.19705 16.9564 8.08982 16.9659 7.98507 16.9696C7.77558 16.9771 7.57984 16.9625 7.57984 16.9625L7.5751 16.9613L7.57035 16.9625C7.40505 16.9791 7.28135 17.06 7.19484 17.1681C7.10832 17.2763 7.05642 17.4101 7.02491 17.5401C6.96188 17.8001 6.97856 18.0499 6.97856 18.0499V18.0559C7.01159 18.221 7.10574 18.3369 7.22336 18.4112C7.34099 18.4855 7.48155 18.5214 7.61551 18.5371C7.87607 18.5678 8.105 18.5241 8.11817 18.5217H8.11938C8.44327 18.5515 8.5609 18.6516 8.60423 18.732C8.64763 18.8126 8.62324 18.8829 8.62324 18.8829L8.62086 18.8901V18.8984C8.62086 19.0242 8.63655 20.0247 8.65176 20.9982C8.66691 21.9682 8.68135 22.901 8.68147 22.9079C8.66699 23.0382 8.63207 23.12 8.59115 23.1706C8.55024 23.2211 8.50352 23.243 8.45568 23.2526C8.36 23.2717 8.26435 23.2336 8.26435 23.2336L8.25485 23.2287H8.24534C7.56472 23.2287 7.25177 23.4663 7.12114 23.7112C6.99113 23.9549 7.03987 24.1961 7.04033 24.1984C7.07372 24.6401 7.35214 24.8439 7.6143 24.9233C7.87738 25.003 8.12887 24.9708 8.12887 24.9708L8.12291 24.972C8.44848 24.972 8.58193 25.0579 8.63866 25.1336C8.6954 25.2093 8.68263 25.2786 8.68263 25.2786L8.68025 25.294L8.68738 25.3095C8.68532 25.3052 8.6945 25.3405 8.69688 25.3867C8.69926 25.4329 8.70065 25.4944 8.69926 25.565C8.69647 25.7062 8.68688 25.8848 8.6755 26.0593C8.65274 26.4084 8.62202 26.7427 8.62202 26.7427V26.7488L8.62323 26.7559C8.68683 27.1057 8.88913 27.2492 9.07125 27.2906C9.24 27.329 9.37906 27.2895 9.40043 27.2835H9.40281L14.2596 27.4059C14.9529 27.911 15.4007 27.9256 15.6689 27.7874C15.9257 27.6551 15.9931 27.419 16.0017 27.3917L16.086 27.4047C16.1403 27.4138 16.2466 27.4184 16.4021 27.4226C16.5577 27.4268 16.7594 27.4295 16.9916 27.4309C17.4559 27.434 18.0415 27.4321 18.6196 27.4285C19.1977 27.4249 19.7689 27.4191 20.2025 27.4143C20.634 27.4094 20.9296 27.406 20.9583 27.406H20.9619C21.1614 27.4503 21.3172 27.4403 21.4372 27.3941C21.5596 27.3471 21.6424 27.2637 21.6963 27.1766C21.8035 27.0035 21.8032 26.8129 21.8032 26.8106V26.8083L21.8638 25.3585C21.8886 25.2632 21.992 25.1934 22.0991 25.1505C22.2028 25.109 22.2964 25.0957 22.3035 25.0947C22.979 25.1839 23.3101 24.9457 23.455 24.6799C23.6001 24.4139 23.5682 24.1297 23.5679 24.1273V24.1262C23.5358 23.6834 23.2734 23.4649 23.0261 23.3692C22.7784 23.2733 22.5412 23.2907 22.5412 23.2907L22.5448 23.2896C22.2223 23.2896 22.0742 23.1774 21.9993 23.0685C21.9248 22.9602 21.9245 22.8557 21.9245 22.8546V22.8534C21.9413 22.7477 21.9516 22.4855 21.9601 22.1297C21.9687 21.7699 21.9741 21.3251 21.9779 20.8915C21.9856 20.0242 21.9863 19.2028 21.9863 19.2028C21.9863 19.1282 22.0286 19.0079 22.073 18.9117C22.1119 18.8275 22.1412 18.7786 22.1503 18.7631C22.525 18.8013 22.8113 18.7789 23.0118 18.7073C23.2212 18.6325 23.3501 18.5103 23.4242 18.3828C23.5706 18.1307 23.5053 17.8649 23.5038 17.8588C23.5316 17.6302 23.4972 17.4573 23.4171 17.3371C23.335 17.2141 23.2131 17.1454 23.0915 17.1089C22.8555 17.0382 22.6202 17.0812 22.6054 17.084C22.189 17.084 22.0462 16.9685 21.9958 16.8677C21.9454 16.7664 21.9828 16.664 21.9828 16.664L21.984 16.6592L21.9852 16.6543C22.0772 16.0711 22.0469 15.6689 21.9923 15.4113C21.9377 15.1537 21.8544 15.0357 21.8544 15.0357L21.8497 15.0286L21.8414 15.0225C21.7793 14.9811 21.6896 14.9654 21.5811 14.9536C21.4726 14.9419 21.3472 14.9382 21.2282 14.9382C20.9903 14.9382 20.7766 14.9536 20.7766 14.9536L20.7612 14.9548L20.7505 14.9631C20.7069 14.9958 20.6598 14.9921 20.5948 14.9595C20.5298 14.927 20.4567 14.8643 20.3904 14.7943C20.2578 14.6544 20.1527 14.4901 20.1527 14.4901L20.1409 14.4722L19.7914 14.4023ZM37.0106 14.4023L36.9928 14.4178C36.0433 15.1893 34.6636 14.8337 34.6636 14.8337L34.6577 14.8326H34.6505C33.3712 14.8326 32.9405 14.8932 32.9405 14.8932L32.9215 14.8968L32.9096 14.911C32.7711 15.0772 32.6013 15.0749 32.4521 15.0322C32.3085 14.9912 32.2002 14.9124 32.1918 14.9063C32.1645 14.8653 32.1199 14.8425 32.0718 14.8255C32.0179 14.8064 31.9562 14.7953 31.8971 14.7874C31.779 14.7717 31.6701 14.7708 31.6701 14.7708H31.6678L31.6666 14.772C30.3313 14.863 29.4987 14.7866 29.0023 14.6888C28.7541 14.64 28.5902 14.5852 28.489 14.5438C28.3877 14.5024 28.3523 14.4761 28.3523 14.4761L28.3583 14.4822C28.3389 14.4628 28.3191 14.4558 28.2965 14.4489C28.2738 14.442 28.2489 14.4368 28.2204 14.4323C28.1634 14.4233 28.0946 14.4183 28.0291 14.4145C27.898 14.4067 27.776 14.4061 27.776 14.4061H27.7451L27.7308 14.4334C27.6778 14.5395 27.5119 14.7635 27.5003 14.7792C27.4924 14.7816 27.4759 14.7854 27.4468 14.7887C27.4125 14.7924 27.3689 14.7957 27.3184 14.7971C27.2175 14.8001 27.0926 14.7983 26.9715 14.7947C26.7292 14.7872 26.5009 14.7721 26.5009 14.7721L26.4996 14.771H26.4984C26.2154 14.771 26.049 14.851 25.9554 14.9362C25.8617 15.0213 25.8401 15.1156 25.8401 15.1156V16.3468C25.8701 16.6773 25.8322 16.8082 25.8104 16.8388C25.7995 16.8541 25.8005 16.8484 25.7985 16.8483C25.7966 16.8482 25.7949 16.8483 25.7949 16.8483L25.7545 16.821L25.726 16.8626C25.7101 16.8864 25.6495 16.9186 25.5632 16.9375C25.4769 16.9563 25.3685 16.9658 25.2637 16.9695C25.0542 16.977 24.8585 16.9624 24.8585 16.9624L24.8549 16.9612L24.8502 16.9624C24.6708 16.9787 24.5357 17.0577 24.4402 17.1656C24.3446 17.2735 24.2868 17.4084 24.2512 17.5388C24.1801 17.7995 24.1966 18.0497 24.1966 18.0497V18.0521L24.1978 18.0557C24.2308 18.2209 24.3249 18.3368 24.4426 18.4111C24.5602 18.4853 24.6996 18.5213 24.8335 18.537C25.0941 18.5677 25.3242 18.524 25.3374 18.5216H25.3386C25.6625 18.5514 25.779 18.6515 25.8223 18.7319C25.8657 18.8125 25.8425 18.8828 25.8425 18.8828L25.8413 18.884V18.8864C25.8297 18.9324 25.8264 19.0111 25.8222 19.1383C25.818 19.2655 25.8153 19.4337 25.8139 19.6279C25.8111 20.0163 25.8125 20.5112 25.8163 20.9981C25.8239 21.9682 25.84 22.9008 25.8401 22.9078C25.8256 23.038 25.7895 23.1199 25.7486 23.1704C25.7076 23.221 25.6609 23.2428 25.6131 23.2524C25.5174 23.2716 25.4229 23.2334 25.4229 23.2334L25.4134 23.2285H25.4027C24.7221 23.2285 24.4092 23.4661 24.2785 23.711C24.1485 23.9548 24.1973 24.1959 24.1977 24.1982C24.2311 24.64 24.5095 24.8437 24.7717 24.9231C25.0348 25.0028 25.2875 24.9706 25.2875 24.9706L25.2815 24.9718C25.5757 24.9718 25.7091 25.0571 25.7747 25.1358C25.8402 25.2145 25.84 25.2867 25.84 25.2867V25.2986L25.8448 25.3093C25.8427 25.305 25.8519 25.3403 25.8543 25.3865C25.8567 25.4327 25.8569 25.4942 25.8555 25.5648C25.8527 25.706 25.8431 25.8846 25.8317 26.0591C25.809 26.4082 25.7794 26.7425 25.7794 26.7425L25.7782 26.7485L25.7794 26.7557C25.843 27.1055 26.0465 27.249 26.2286 27.2904C26.3972 27.3288 26.5362 27.2907 26.5578 27.2843H26.5602L31.4169 27.4067C32.1103 27.9119 32.5569 27.9264 32.8251 27.7882C33.0838 27.655 33.167 27.4023 33.1745 27.3782L33.1757 27.3771C33.1976 27.3351 33.244 27.3153 33.2672 27.3153C33.2789 27.3153 33.2779 27.3176 33.2755 27.3141C33.2732 27.3104 33.2779 27.3129 33.2672 27.3343L33.2375 27.3949L33.304 27.4056C33.3583 27.4146 33.4646 27.4192 33.6201 27.4234C33.7757 27.4277 33.9774 27.4303 34.2096 27.4318C34.6739 27.4348 35.2595 27.433 35.8376 27.4294C36.4157 27.4258 36.9858 27.4199 37.4193 27.4152C37.8529 27.4103 38.1536 27.4068 38.1798 27.4068C38.3937 27.4511 38.557 27.44 38.6801 27.3938C38.8055 27.3468 38.8877 27.2631 38.938 27.1751C39.0386 26.9991 39.02 26.8032 39.02 26.8032L39.0212 26.8103L39.0818 25.3581C39.1065 25.2628 39.2088 25.193 39.3159 25.1501C39.4205 25.1083 39.5159 25.0963 39.5215 25.0955C40.1969 25.1848 40.528 24.9453 40.673 24.6796C40.8181 24.4136 40.785 24.1305 40.7847 24.1282V24.1258C40.7526 23.6831 40.4914 23.4646 40.244 23.3688C39.9964 23.273 39.758 23.2904 39.758 23.2904L39.7627 23.2892C39.4088 23.2892 39.2636 23.1759 39.1971 23.0694C39.1305 22.9629 39.1436 22.859 39.1436 22.859V22.853C39.1436 22.4935 39.2042 19.2035 39.2042 19.2035V19.2023C39.2042 19.1277 39.2465 19.0074 39.2909 18.9112C39.3298 18.8269 39.3603 18.778 39.3694 18.7626C39.7441 18.8008 40.0304 18.7784 40.2309 18.7068C40.4403 18.632 40.5693 18.5099 40.6433 18.3823C40.7897 18.1302 40.7244 17.8644 40.7229 17.8583C40.7507 17.6297 40.7152 17.4568 40.635 17.3366C40.553 17.2136 40.4311 17.1449 40.3094 17.1084C40.0725 17.0374 39.8362 17.0811 39.8233 17.0835C39.4069 17.0835 39.2653 16.9681 39.2149 16.8672C39.1644 16.7663 39.2018 16.664 39.2018 16.664L39.2041 16.6542C39.2962 16.0711 39.2659 15.6688 39.2113 15.4112C39.1566 15.1536 39.0734 15.0357 39.0734 15.0357L39.0675 15.0286L39.0603 15.0225C38.9982 14.9811 38.9086 14.9653 38.8001 14.9536C38.6916 14.9418 38.5661 14.9381 38.4472 14.9381C38.2092 14.9381 37.9944 14.9536 37.9944 14.9536L37.9801 14.9547L37.9683 14.9631C37.9247 14.9958 37.8788 14.9921 37.8138 14.9594C37.7488 14.9269 37.6745 14.8642 37.6082 14.7943C37.4756 14.6543 37.3717 14.49 37.3717 14.49L37.3598 14.4722L37.0106 14.4023Z" fill="black"/>
<path d="M24.0535 52.6663L23.9318 52.6055C23.8101 52.5447 7.19963 45.3652 5.92188 23.522V9.83203H41.9411V23.4611C41.9411 28.8155 40.2375 42.4443 24.1746 52.5447L24.0535 52.6663ZM6.34779 10.2568V23.4599C7.56467 44.1468 22.654 51.57 24.0535 52.1784C39.8121 42.1392 41.5158 28.7535 41.5158 23.4599V10.2568H6.34779Z" fill="black"/>
<path d="M11.2859 14.9454C11.2859 14.9454 10.9208 14.9456 10.9816 15.189L10.8604 24.4369C10.8604 24.4369 10.8602 24.8633 11.5295 24.9241C11.5295 24.9241 12.3808 24.985 12.5633 24.9241H14.5111C14.5111 24.9241 14.8759 25.2883 14.8759 24.8623C14.8759 24.8623 15.1188 17.3795 14.9971 15.7975C14.9971 15.7975 14.9969 15.1273 14.4493 15.1273C14.4493 15.1273 12.2598 15.3098 12.0773 15.1273L11.2859 14.9454ZM19.7316 14.9596C19.6514 14.9525 19.5222 14.9753 19.3168 15.0665C19.3168 15.0665 19.3786 15.3106 16.6407 15.1889C16.5798 15.1889 15.5453 15.1884 15.4844 15.6144C15.4844 15.6144 15.4238 19.9953 15.4238 20.117L15.362 23.7677L15.3014 25.0452C15.3014 25.0452 15.4839 25.2883 15.6056 25.1058C15.6056 25.1058 16.5183 24.8629 17.1267 24.9846C17.1267 24.9846 18.9528 25.1664 19.3787 24.8622C19.3787 24.8622 19.6827 24.9838 19.7435 24.5579C19.7435 24.5579 19.8649 16.4658 19.8041 16.3441C19.8041 16.3441 19.9256 15.1883 19.8647 15.0666C19.8647 15.0666 19.8653 14.9715 19.7316 14.9596ZM9.70065 15.1866C9.58122 15.1902 9.40737 15.265 9.15639 15.4932L9.09579 16.71C9.09579 16.71 9.09579 17.3793 8.48733 17.3185C8.48733 17.3185 7.81733 17.3185 7.45229 17.6227C7.45229 17.6227 7.27023 18.2302 7.93952 18.1694C7.93952 18.1694 8.97433 18.1699 9.03518 18.596L8.97338 22.9763C8.97338 22.9763 9.21771 23.7071 8.42675 23.7071C8.42675 23.7071 7.45228 23.6453 7.45228 24.2538C7.45228 24.2538 7.63552 24.7415 8.48733 24.6198C8.48733 24.6198 9.09601 24.7412 9.03517 25.2888V26.3833C9.03517 26.3833 8.97337 26.8097 9.58181 26.8705H14.0844C14.0844 26.8705 14.328 26.8703 14.328 26.6269C14.328 26.6269 14.3282 26.3833 13.9631 26.3833L10.2519 26.2621C10.2519 26.2621 9.64247 26.4451 9.58163 25.5325C9.58163 25.5325 9.64054 17.7195 9.64223 17.3756C9.64227 17.3758 9.64344 17.3793 9.64344 17.3793C9.64344 17.3793 9.64241 17.3506 9.64223 17.3472C9.64225 17.3442 9.64344 17.2582 9.64344 17.2569C9.64229 17.2545 9.64218 17.2545 9.64106 17.252C9.6346 16.953 9.63345 15.8945 9.94767 15.3708C9.94767 15.3708 9.8997 15.1806 9.70065 15.1866ZM21.2219 15.2091C20.9608 15.2317 20.9604 15.5538 20.9604 15.5538C21.0821 15.6754 21.1422 16.1016 21.1422 16.1016C21.2031 17.0751 21.1422 18.1701 21.1422 19.2044C21.0814 22.6726 20.9604 25.8366 20.9604 25.8366C20.9604 26.5059 20.5956 26.3226 20.5956 26.3226H16.5789C16.153 26.3226 16.1535 26.5662 16.1535 26.5662C16.2143 26.9313 16.5789 26.8098 16.5789 26.8098C16.944 26.8707 20.9604 26.8098 20.9604 26.8098C21.5688 26.8707 21.5082 26.079 21.5082 26.079C21.5691 24.6796 21.69 24.5579 21.69 24.5579C21.8117 24.497 22.4815 24.4973 22.4815 24.4973C23.5767 24.5581 23.0899 23.8282 23.0899 23.8282C22.9683 23.6457 22.2379 23.6452 22.2379 23.6452C21.5686 23.7061 21.6294 22.9762 21.6294 22.9762L21.6901 18.7779C21.5684 18.4128 21.8731 18.2312 21.8731 18.2312H22.5421C23.4547 18.2921 23.2111 17.6834 23.2111 17.6834C23.2111 17.3792 22.4209 17.2568 22.4209 17.2568C21.6908 17.3785 21.7506 16.9525 21.7506 16.9525V15.9187C21.8723 15.2494 21.4464 15.2497 21.4464 15.2497C21.3551 15.2155 21.2821 15.2039 21.2219 15.2091ZM20.3627 15.3446C20.2851 15.355 20.1996 15.4169 20.1084 15.5538V24.6803C20.1084 24.6803 20.3517 25.4708 20.7168 25.4099C20.7168 25.4099 20.7774 25.2281 20.7774 24.9239L20.8998 16.2227C20.8998 16.2227 20.6991 15.2994 20.3627 15.3446ZM10.5563 15.4314C10.0087 15.4314 9.94785 16.4664 9.94785 16.4664L9.88606 25.1059C9.9469 25.5318 10.0691 25.4707 10.0691 25.4707C10.6167 25.1057 10.5563 24.4975 10.5563 24.4975C10.5563 24.4975 10.6169 16.2839 10.6169 16.1622C10.6169 16.0405 10.5563 15.4314 10.5563 15.4314ZM10.8094 25.1628C10.7834 25.164 10.7543 25.1683 10.7239 25.1771C10.6022 25.2118 10.4521 25.3165 10.3258 25.5692L10.3234 25.5741L10.3222 25.579C10.3222 25.579 10.2861 25.6924 10.3138 25.8036C10.3278 25.8592 10.3633 25.9181 10.4279 25.9485C10.4904 25.9779 10.5731 25.979 10.6811 25.9497H13.6519L14.4493 26.1339L14.46 26.1316C14.46 26.1316 14.517 26.1184 14.5871 26.0923C14.6573 26.0663 14.7429 26.0281 14.8058 25.9652C14.8373 25.9337 14.8636 25.8949 14.8747 25.8487C14.8859 25.8025 14.8798 25.7495 14.8557 25.6978C14.8075 25.5944 14.6929 25.4893 14.4754 25.365L14.4636 25.3579H11.5961C11.5916 25.3568 11.462 25.3286 11.3132 25.2914C11.1619 25.2535 10.9889 25.2035 10.9437 25.1809L10.9413 25.1797H10.9401C10.9401 25.1797 10.8874 25.1586 10.8094 25.1628ZM19.8492 25.3233C19.6781 25.3147 19.4392 25.3494 19.4392 25.3494C18.9525 25.6536 16.0927 25.41 16.0927 25.41C15.9102 25.41 15.6661 25.7142 15.6661 25.7142C15.6053 26.2619 16.5184 26.0185 16.4576 26.0185H19.8646C20.4122 26.1402 20.4125 25.8973 20.4125 25.8973C20.4125 25.7147 19.987 25.3494 19.987 25.3494C19.9566 25.3342 19.9062 25.3261 19.8492 25.3233ZM15.3478 26.0054C15.3322 26.0065 15.3167 26.0108 15.3015 26.0185C15.3015 26.0185 14.7536 26.019 14.7536 26.7493C14.7536 26.7493 14.8145 27.2959 15.3621 27.2959C15.3621 27.2959 15.8493 27.1745 15.8493 26.6269C15.8493 26.6269 15.5818 25.9853 15.3478 26.0054ZM28.4434 14.9453C28.4434 14.9453 28.0783 14.9456 28.1392 15.1889L28.0179 24.4368C28.0179 24.4368 28.0177 24.8632 28.687 24.9241C28.687 24.9241 29.5395 24.9849 29.722 24.9241H31.6685C31.6685 24.9241 32.0334 25.2884 32.0334 24.8017C32.0334 24.8017 32.2775 17.3177 32.1558 15.7357C32.1558 15.7357 32.1555 15.0667 31.6079 15.0667C31.6079 15.0667 29.4173 15.2492 29.2348 15.0667L28.4434 14.9453ZM36.8653 15.0202C36.7934 15.0232 36.6882 15.0511 36.5361 15.1271C36.5361 15.1271 36.5967 15.3712 33.8588 15.2495C33.7979 15.2495 32.7025 15.1882 32.7025 15.675C32.7025 15.675 32.6419 20.0559 32.6419 20.1775L32.5813 23.8283L32.4601 25.1058C32.4601 25.1058 32.6426 25.3489 32.7643 25.1664C32.7643 25.1664 33.6769 24.9235 34.2854 25.0452C34.2854 25.0452 36.1102 25.2282 36.5361 24.9239C36.5361 24.9239 36.8401 25.0456 36.901 24.6197C36.901 24.6197 37.0224 16.5276 36.9616 16.4059C36.9616 16.4059 37.0842 15.2489 37.0234 15.1272C37.0234 15.1272 37.0235 15.013 36.8653 15.0202ZM26.7976 15.1866C26.6782 15.1902 26.5043 15.265 26.2534 15.4931V16.6482C26.2534 16.6482 26.2534 17.3175 25.6449 17.2567C25.6449 17.2567 24.9761 17.2567 24.611 17.5609C24.611 17.5609 24.4278 18.1696 25.0971 18.1088C25.0971 18.1088 26.1319 18.1093 26.1927 18.5354L26.1321 22.9157C26.1321 22.9157 26.3755 23.6453 25.5237 23.6453C25.5237 23.6453 24.5504 23.5847 24.5504 24.1932C24.5504 24.1932 24.7325 24.6797 25.5843 24.558C25.5843 24.558 26.1927 24.6806 26.1927 25.2282V26.3227C26.1927 26.3227 26.1324 26.7491 26.68 26.8099H31.1813C31.1813 26.8099 31.4249 26.8097 31.4249 26.5663C31.4249 26.5663 31.4252 26.3227 31.0601 26.3227L27.4094 26.2621C27.4094 26.2621 26.8012 26.4451 26.7404 25.5325C26.7404 25.5325 26.8012 17.3783 26.7404 17.2566V17.379C26.7404 17.379 26.6795 15.9791 27.0446 15.3707C27.0446 15.3707 26.9967 15.1806 26.7976 15.1866ZM38.3794 15.2091C38.1183 15.2317 38.1179 15.5537 38.1179 15.5537C38.1788 15.6754 38.301 16.1016 38.301 16.1016C38.3618 17.0751 38.301 18.17 38.301 19.2044C38.2401 22.6726 38.1179 25.8366 38.1179 25.8366C38.1179 26.5058 37.7531 26.3226 37.7531 26.3226H33.7376C33.3117 26.3226 33.311 26.5662 33.311 26.5662C33.3718 26.9313 33.7982 26.8101 33.7982 26.7492C34.1633 26.8101 38.1785 26.7492 38.1785 26.7492C38.7869 26.8101 38.7263 26.0184 38.7263 26.0184C38.7872 24.6189 38.9093 24.4973 38.9093 24.4973C39.031 24.4364 39.6996 24.4367 39.6996 24.4367C40.7339 24.4975 40.2474 23.7676 40.2474 23.7676C40.1258 23.5851 39.3954 23.5846 39.3954 23.5846C38.7261 23.6455 38.787 22.9156 38.787 22.9156L38.8487 18.7172C38.7271 18.3522 39.0306 18.1694 39.0306 18.1694H39.6996C40.6122 18.2302 40.3698 17.6228 40.3698 17.6228C40.3698 17.3185 39.5784 17.1961 39.5784 17.1961C38.8483 17.3178 38.9093 16.8919 38.9093 16.8919V15.9187C39.031 15.2494 38.6051 15.2496 38.6051 15.2496C38.5139 15.2154 38.4396 15.2039 38.3794 15.2091ZM37.5202 15.3672C37.4426 15.3736 37.3572 15.4283 37.2659 15.5538V24.6803C37.2659 24.6803 37.5093 25.4708 37.8743 25.4099C37.8743 25.4099 37.9361 25.2281 37.9361 24.9239L38.0574 16.2227C38.0574 16.2227 37.8566 15.3396 37.5202 15.3672ZM27.7138 15.4314C27.1662 15.4314 27.1054 16.4664 27.1054 16.4664L27.0448 25.1059C27.1056 25.5318 27.2266 25.4707 27.2266 25.4707C27.7742 25.1056 27.7138 24.4974 27.7138 24.4974C27.7138 24.4974 27.7744 16.2839 27.7744 16.1622C27.7744 16.0405 27.7138 15.4314 27.7138 15.4314ZM28.062 25.1534C27.9558 25.1504 27.7599 25.1978 27.5926 25.5325C27.5926 25.5325 27.4709 25.9584 27.8969 25.8367H30.8774L31.6689 26.0185C31.6689 26.0185 32.5207 25.8362 31.6689 25.3495H28.8097C28.8097 25.3495 28.2611 25.2273 28.1395 25.1665C28.1395 25.1665 28.1103 25.1549 28.062 25.1534ZM37.0401 25.2616C36.8856 25.2646 36.7192 25.2889 36.7192 25.2889C36.2325 25.5931 33.3727 25.3495 33.3727 25.3495C33.1902 25.3495 32.9461 25.6537 32.9461 25.6537C32.8244 26.2013 33.7376 25.9579 33.7376 25.9579H37.1446C37.6922 26.0796 37.6925 25.8367 37.6925 25.8367C37.6925 25.6542 37.2658 25.2889 37.2658 25.2889C37.2202 25.2661 37.1328 25.2598 37.0401 25.2616ZM32.5672 25.9449C32.5512 25.946 32.5361 25.9503 32.5209 25.9579C32.5209 25.9579 31.9728 25.9574 32.0336 26.6876C32.0336 26.6876 32.0945 27.2354 32.6421 27.2354C32.6421 27.2354 33.1293 27.1748 33.1293 26.5664C33.1293 26.5664 32.8079 25.9248 32.5672 25.9449ZM23.516 37.7618C23.516 37.7618 23.516 38.4311 23.4551 39.1004C23.3943 39.4655 23.5768 41.1691 23.4551 42.0209C23.4551 42.0209 23.4551 42.3251 22.8467 42.0818C22.8467 42.0818 19.1351 42.1426 19.0743 42.0209C19.0743 42.0209 18.0399 42.0818 17.9791 41.5341C17.9791 41.5341 18.1008 37.5792 18.0399 37.4575C18.0399 37.4575 17.9791 35.328 18.0399 35.0846C18.0399 35.0846 18.1008 33.0767 18.0399 32.8334C18.0399 32.8334 18.0399 32.3466 17.9791 32.1641C17.9791 32.1641 17.9791 31.8599 18.4658 32.0424C18.4658 32.0424 18.6484 32.3466 19.561 32.2249C19.561 32.2249 20.2303 32.3466 20.8996 32.2249C20.8996 32.2249 22.3599 32.1032 22.7249 32.2249C22.7249 32.2249 23.3334 32.1032 23.455 32.7725V34.537L23.6375 35.1455L23.8201 35.0238L23.8809 34.5979V32.7117C23.8809 32.7117 24.0026 32.3466 24.4894 32.2858C24.4894 32.2858 25.2195 32.2249 25.3412 32.2858C25.4629 32.3466 27.0448 32.4075 27.4707 32.3466C27.8966 32.2858 27.9575 32.6509 29.296 31.9816C29.296 31.9816 29.6611 31.9816 29.6611 32.2249C29.6611 32.2249 29.5394 34.6587 29.6611 35.1455C29.6611 35.1455 29.6611 39.648 29.5394 39.9522L29.6003 41.4125C29.6003 41.4125 29.6611 42.021 28.6268 42.0818C28.6268 42.0818 29.2352 42.1426 25.2803 42.0209C25.2803 42.0209 24.6718 41.9601 23.9417 42.3252C23.9417 42.3252 23.82 42.2643 23.82 41.8992C23.82 41.8992 23.9417 40.5607 23.82 39.2221L23.7592 37.7618L23.516 37.7618ZM29.9044 41.7168C29.9044 41.7168 30.2695 42.386 30.3912 42.4469C30.3912 42.4469 30.6954 42.812 30.6346 42.1427L30.6954 33.8071C30.6954 33.8071 30.6346 33.5029 30.6954 33.077L30.3303 32.4686C30.3303 32.4686 29.9653 32.1643 29.9653 32.6511V41.4734L29.9044 41.7168ZM17.7965 42.0818C17.7965 42.0818 18.2224 42.5078 18.8917 42.5078L22.7858 42.5686C22.7858 42.5686 23.2117 42.6294 23.2117 42.812C23.2117 42.812 23.1509 43.1771 22.6033 43.0554L17.8573 42.9945L17.3097 43.0554C17.3097 43.0554 16.9447 42.9945 17.4923 42.3252L17.7965 42.0818ZM16.9447 32.5294C16.9447 32.5294 16.5796 33.1379 16.6405 33.3204V42.9336C16.6405 42.9336 16.5796 43.603 17.1273 43.4204C17.1273 43.4204 22.1774 43.2987 22.5425 43.4204C22.5425 43.4204 23.0292 43.4813 22.8467 43.7246C22.8467 43.7246 22.8467 43.9072 22.5425 43.8463C22.5425 43.8463 20.1696 44.0897 17.9791 43.968C17.9791 43.968 16.5188 44.0289 16.458 43.9072C16.458 43.9072 16.2146 43.8463 16.2146 43.0554C16.2146 43.0554 16.2146 42.2644 16.1538 42.1427C16.1538 42.1427 16.2146 41.7168 15.4845 41.6559C15.4845 41.6559 14.4502 41.8385 14.4502 41.23C14.4502 41.23 14.5718 40.8041 15.6062 40.865C15.6062 40.865 16.3363 40.9866 16.1538 40.3782L16.2146 36.119C16.2146 36.119 16.3363 35.3889 15.7887 35.3281H15.1803C15.1803 35.3281 14.3285 35.3281 14.3893 34.8413C14.3893 34.8413 14.6935 34.3545 15.5453 34.4154C15.5453 34.4154 16.1538 34.5371 16.2146 33.8069C16.2146 33.8069 16.2146 32.3467 16.5188 32.2858C16.458 32.2858 17.1881 32.3469 16.9447 32.5294ZM17.4315 32.4683C17.4315 32.4683 17.614 32.4683 17.614 32.8334L17.5532 41.534C17.5532 41.534 17.614 42.0816 17.1273 42.5075C17.1273 42.5075 16.8839 42.8117 16.8839 42.325L17.0056 33.4418C17.0056 33.4418 17.0056 32.7725 17.4315 32.4683ZM24.2459 42.6901C24.2459 42.6901 24.7326 42.325 24.976 42.3859C24.976 42.3859 27.5923 42.5684 28.3833 42.4467C29.1743 42.325 28.6876 42.3859 28.6876 42.3859C28.6876 42.3859 29.3569 42.3859 29.6002 42.1425C29.6002 42.1425 29.7827 42.0816 29.9044 42.2642L30.3304 42.7509C30.3304 42.7509 30.3304 43.0552 29.8436 42.9943C29.8436 42.9943 25.1585 42.9943 24.976 43.0552C25.0368 43.0552 24.185 43.1768 24.2459 42.6901ZM24.5501 43.481C24.5501 43.481 24.9152 43.2985 25.1585 43.3594C25.4019 43.4202 28.7484 43.2985 28.7484 43.2985C28.7484 43.2985 30.2087 43.4202 30.452 43.1768L30.8171 43.0551C30.8171 43.0551 30.9388 42.8726 30.9388 42.6292V41.5949L30.9996 41.2907V33.3202C30.9996 33.3202 31.1213 32.7117 30.7563 32.3467C30.7563 32.3467 30.7563 32.1033 30.878 32.1642C30.9996 32.225 30.9388 32.1642 30.9388 32.1642C30.9388 32.1642 31.4256 32.0425 31.5473 32.225C31.5473 32.225 31.7906 32.8943 31.5473 33.3202C31.5473 33.3202 31.4864 34.172 31.9123 34.172C31.9123 34.172 32.0949 34.3545 32.3991 34.2328C32.3991 34.2328 33.1292 34.2937 33.1292 34.5371C33.1292 34.5371 33.1292 35.0847 32.6424 34.963L31.9731 35.0238C31.9731 35.0238 31.4864 35.1455 31.5472 35.6323C31.6081 36.1799 31.5472 40.1349 31.5472 40.1349C31.5472 40.1349 31.5472 40.6216 32.2773 40.5608C32.2773 40.5608 33.19 40.4999 33.19 40.8041C33.19 40.8041 33.4334 41.3518 32.7641 41.4126C32.7641 41.4126 31.5472 41.3518 31.6689 41.7168C31.6689 41.7168 31.608 42.5078 31.5472 42.6903C31.5472 42.6903 31.6689 43.3596 31.5472 43.4813C31.5472 43.4813 31.4864 43.8464 30.6954 43.7855C30.6954 43.7855 25.7669 43.7855 24.9759 43.8464C24.9151 43.968 24.4284 43.907 24.5501 43.481ZM23.6982 42.9337C23.6982 42.9337 24.185 42.9945 24.185 43.4813C24.185 43.9681 24.185 44.2114 23.9416 44.2722C23.6374 44.3331 23.3332 44.2114 23.2723 43.8463C23.1507 43.4813 23.2723 43.0554 23.6982 42.9337Z" fill="white"/>
<path d="M14.6344 18.2898L14.391 18.8374C14.391 18.8374 13.7826 21.6362 13.4175 22.1839C13.4175 22.1839 13.3567 22.7923 12.8699 22.3056C12.8699 22.3056 11.7139 18.7765 11.653 18.6548L11.288 18.4115C11.288 18.4115 11.0446 18.1072 11.4705 18.0464H12.5657C12.5657 18.0464 12.9308 18.3506 12.444 18.6549C12.444 18.6549 12.5049 19.1416 13.1133 20.9061C13.1133 20.9061 13.2958 21.5753 13.4783 21.0886L14.0868 19.0199L13.9043 18.4115C13.9043 18.4115 13.7217 18.1072 13.9651 18.1072C13.9651 18.1072 14.5736 18.0464 14.6344 18.2898ZM16.2772 18.7765V21.8188L16.2163 22.0622C16.2163 22.0622 15.9121 22.4273 16.1555 22.4881C16.1555 22.4881 15.9121 22.6706 17.9808 22.6706C17.9808 22.6706 18.7717 22.7923 18.5892 21.758C18.5892 21.758 18.5284 21.3929 18.2242 21.9405C18.2242 21.9405 18.1633 22.4273 17.0681 22.2447C17.0681 22.2447 16.8248 22.0622 16.8248 21.8188V20.5411C16.8248 20.5411 16.8248 20.2369 17.3115 20.2369C17.3115 20.2369 17.8591 20.6019 17.92 20.4194C17.92 20.4194 18.1025 19.9326 17.92 19.6893C17.92 19.6893 17.6766 19.6893 17.6157 19.7501C17.6157 19.7501 17.4332 20.1152 16.9465 19.8718C16.9465 19.8718 16.7031 19.3851 16.8856 19.02C16.8856 19.02 16.8248 18.2899 17.3115 18.3507C17.3115 18.3507 17.92 18.4724 17.92 18.6549C17.92 18.6549 18.0417 19.02 18.2242 18.5941L18.1025 18.1682C18.1025 18.1682 18.0417 17.9857 17.8592 18.0465C17.8592 18.0465 16.8857 18.1682 16.764 18.0465L15.973 18.1073C15.973 18.1073 15.8513 18.4116 16.2164 18.5333C16.2164 18.5941 16.2772 18.6548 16.2772 18.7765ZM33.7395 18.2899C33.6787 18.0465 34.2263 18.0465 34.2263 18.0465L34.5305 18.1073C34.7131 18.1073 34.9564 18.1682 34.9564 18.1682C35.139 18.4724 34.8348 18.6549 34.8348 18.6549L34.7131 19.02V22.0623C34.7739 22.184 35.0173 22.4882 35.0173 22.4882C35.0173 22.7316 34.7131 22.6707 34.7131 22.6707H33.8613C33.6179 22.6707 33.6787 22.3665 33.6787 22.3665C33.983 22.2448 34.0438 21.6972 34.0438 21.6972V18.8375L33.7395 18.2899ZM29.8454 20.967L29.7846 21.8797L30.028 22.3056C30.2105 22.549 29.9063 22.7315 29.9063 22.7315L28.9936 22.6098C28.8111 22.549 28.9936 22.2447 28.9936 22.2447C29.237 22.1231 29.237 21.758 29.237 21.758V18.8375C29.237 18.7158 28.9936 18.4115 28.9936 18.4115C28.8111 18.4115 28.8719 18.1073 28.8719 18.1073C28.9328 17.9856 29.4196 18.0465 29.4196 18.0465H30.6364C31.7925 18.4115 31.6099 19.2633 31.6099 19.2633C31.6708 20.1151 30.819 20.4194 30.819 20.4194L30.7581 20.9061L31.6099 22.2447C31.7316 22.3664 31.7316 22.4881 31.7316 22.4881C31.6099 22.7923 31.1232 22.4881 31.1232 22.4881L30.0888 20.8453C29.9671 20.7236 29.8454 20.967 29.8454 20.967ZM29.8454 18.6549V20.176C30.3931 20.6019 30.6972 19.9935 30.6972 19.9935C31.4274 19.3242 30.6972 18.6549 30.5756 18.4724C30.4539 18.2898 29.9063 18.4724 29.9063 18.4724L29.8454 18.6549ZM20.9623 35.6913C20.9623 35.6913 21.0232 37.8209 20.9623 38.1251V38.6119C20.9623 38.6119 21.084 38.9161 21.2666 39.0378C21.2666 39.0378 21.3882 39.4637 21.084 39.4029C21.084 39.4029 20.3539 39.342 20.1714 39.4029C20.1714 39.4029 19.7455 39.4029 20.1714 38.9161C20.1714 38.9161 20.2931 38.7336 20.2931 38.186C20.2931 38.186 20.2931 35.7522 20.3539 35.6305C20.3539 35.6305 20.4148 35.3263 20.2322 35.2046H19.8672L19.4412 35.6305C19.4412 35.6305 19.3195 36.0564 19.137 35.6305V35.3871L19.3804 34.7178H19.5629C19.5629 34.7178 19.8063 34.9004 20.0497 34.9612H21.3882L21.875 34.7178C21.875 34.7178 22.0575 34.7178 21.9967 35.0221C21.9967 35.0221 22.0575 35.6913 21.6925 35.7522C21.6925 35.7522 21.4491 35.6913 21.3274 35.3263C21.3274 35.2654 20.9623 35.022 20.9623 35.6913ZM27.2899 34.9004C27.2899 34.9004 26.1947 34.7787 26.1947 35.9956C26.1947 35.9956 26.0731 36.7865 27.2899 37.3341C27.2899 37.3341 28.2026 37.7601 28.1417 38.3076C28.1417 38.3076 28.0201 39.2811 27.0466 38.7944C27.0466 38.7944 26.5598 38.551 26.6206 38.3076C26.6206 38.3076 26.4989 38.0034 26.3164 38.0643C26.3164 38.0643 26.1339 38.1251 26.1947 39.0986C26.1947 39.0986 26.1947 39.4637 26.6206 39.0986L26.864 39.1595C26.864 39.1595 27.655 39.7679 28.3243 39.0378C28.3243 39.0378 29.0544 38.3685 28.5068 37.5775C28.5068 37.5775 28.1417 36.9691 27.4725 36.7257C27.4725 36.7257 26.864 36.4215 26.6815 35.9347C26.6815 35.9347 26.864 35.0829 27.655 35.5088C27.655 35.5088 27.9592 35.8739 28.1418 35.9347C28.1418 35.9347 28.3851 35.9347 28.3243 35.3871L28.2634 34.9612C28.2634 34.9612 28.2026 34.657 27.7767 34.9612C27.7767 34.9004 27.4116 35.0829 27.2899 34.9004ZM23.8217 34.2919C24.0043 34.4136 24.0651 34.7178 24.0651 34.7178C24.6736 36.2389 25.1603 38.4903 25.1603 38.4903C25.282 38.7945 25.5862 38.977 25.5862 38.977C26.073 39.1595 25.5862 39.2812 25.5862 39.2812C25.4037 39.3421 24.7344 39.2812 24.7344 39.2812C24.3693 39.2204 24.5519 39.0987 24.5519 39.0987C24.6736 38.977 24.5519 38.3686 24.5519 38.3686C24.5519 38.1252 24.2477 37.7601 24.2477 37.7601C24.126 37.6993 23.9434 37.9427 23.9434 37.9427C23.9434 37.9427 23.6392 38.0644 23.5784 37.9427C23.5175 37.821 23.335 37.6993 23.335 37.6993C22.9699 37.6993 22.8482 38.5511 22.8482 38.5511C23.0308 39.2812 22.8482 39.1596 22.8482 39.1596C22.6657 39.4029 22.1181 39.2204 22.1181 39.2204C21.8747 39.1596 22.0573 38.977 22.0573 38.977C22.3615 38.9162 22.4832 38.5511 22.4832 38.5511C22.6049 38.3686 23.5784 34.5961 23.5784 34.5961C23.5175 34.5353 23.5784 34.1702 23.8217 34.2919ZM23.335 36.2389C23.335 36.3606 23.0916 37.2124 23.0916 37.2124L23.2741 37.5166H23.8826C24.0043 37.5166 24.0651 37.395 24.0651 37.2124C24.0651 37.0907 23.7609 36.1781 23.7609 36.1781L23.6392 35.9955L23.335 36.2389Z" fill="black"/>
</svg>
